<svg width="28" height="27" viewBox="0 0 28 27" fill="none" xmlns="http://www.w3.org/2000/svg">
<path d="M13.0749 11.722H24.7969C24.9165 11.722 25.0312 11.6745 25.1157 11.59C25.2003 11.5054 25.2478 11.3907 25.2478 11.2712V8.56608C25.2478 8.44651 25.2003 8.33183 25.1157 8.24728C25.0312 8.16273 24.9165 8.11523 24.7969 8.11523H13.0749C12.9553 8.11523 12.8406 8.16273 12.7561 8.24728C12.6715 8.33183 12.624 8.44651 12.624 8.56608V11.2712C12.624 11.3907 12.6715 11.5054 12.7561 11.59C12.8406 11.6745 12.9553 11.722 13.0749 11.722ZM13.5257 9.01693H24.3461V10.8203H13.5257V9.01693ZM13.0749 15.7796H15.78C15.8995 15.7796 16.0142 15.7321 16.0988 15.6476C16.1833 15.563 16.2308 15.4484 16.2308 15.3288V12.6237C16.2308 12.5041 16.1833 12.3895 16.0988 12.3049C16.0142 12.2204 15.8995 12.1729 15.78 12.1729H13.0749C12.9553 12.1729 12.8406 12.2204 12.7561 12.3049C12.6715 12.3895 12.624 12.5041 12.624 12.6237V15.3288C12.624 15.4484 12.6715 15.563 12.7561 15.6476C12.8406 15.7321 12.9553 15.7796 13.0749 15.7796ZM13.5257 13.0746H15.3291V14.8779H13.5257V13.0746ZM20.2884 12.1729H17.5833C17.4638 12.1729 17.3491 12.2204 17.2645 12.3049C17.18 12.3895 17.1325 12.5041 17.1325 12.6237V15.3288C17.1325 15.4484 17.18 15.563 17.2645 15.6476C17.3491 15.7321 17.4638 15.7796 17.5833 15.7796H20.2884C20.408 15.7796 20.5227 15.7321 20.6072 15.6476C20.6918 15.563 20.7393 15.4484 20.7393 15.3288V12.6237C20.7393 12.5041 20.6918 12.3895 20.6072 12.3049C20.5227 12.2204 20.408 12.1729 20.2884 12.1729ZM19.8376 14.8779H18.0342V13.0746H19.8376V14.8779ZM24.7969 12.1729H22.0918C21.9722 12.1729 21.8576 12.2204 21.773 12.3049C21.6885 12.3895 21.641 12.5041 21.641 12.6237V15.3288C21.641 15.4484 21.6885 15.563 21.773 15.6476C21.8576 15.7321 21.9722 15.7796 22.0918 15.7796H24.7969C24.9165 15.7796 25.0312 15.7321 25.1157 15.6476C25.2003 15.563 25.2478 15.4484 25.2478 15.3288V12.6237C25.2478 12.5041 25.2003 12.3895 25.1157 12.3049C25.0312 12.2204 24.9165 12.1729 24.7969 12.1729ZM24.3461 14.8779H22.5427V13.0746H24.3461V14.8779ZM13.0749 20.2881H15.78C15.8995 20.2881 16.0142 20.2406 16.0988 20.1561C16.1833 20.0715 16.2308 19.9568 16.2308 19.8373V17.1322C16.2308 17.0126 16.1833 16.8979 16.0988 16.8134C16.0142 16.7288 15.8995 16.6813 15.78 16.6813H13.0749C12.9553 16.6813 12.8406 16.7288 12.7561 16.8134C12.6715 16.8979 12.624 17.0126 12.624 17.1322V19.8373C12.624 19.9568 12.6715 20.0715 12.7561 20.1561C12.8406 20.2406 12.9553 20.2881 13.0749 20.2881ZM13.5257 17.583H15.3291V19.3864H13.5257V17.583ZM20.2884 16.6813H17.5833C17.4638 16.6813 17.3491 16.7288 17.2645 16.8134C17.18 16.8979 17.1325 17.0126 17.1325 17.1322V19.8373C17.1325 19.9568 17.18 20.0715 17.2645 20.1561C17.3491 20.2406 17.4638 20.2881 17.5833 20.2881H20.2884C20.408 20.2881 20.5227 20.2406 20.6072 20.1561C20.6918 20.0715 20.7393 19.9568 20.7393 19.8373V17.1322C20.7393 17.0126 20.6918 16.8979 20.6072 16.8134C20.5227 16.7288 20.408 16.6813 20.2884 16.6813ZM19.8376 19.3864H18.0342V17.583H19.8376V19.3864ZM24.7969 16.6813H22.0918C21.9722 16.6813 21.8576 16.7288 21.773 16.8134C21.6885 16.8979 21.641 17.0126 21.641 17.1322V24.3457C21.641 24.4653 21.6885 24.58 21.773 24.6645C21.8576 24.7491 21.9722 24.7966 22.0918 24.7966H24.7969C24.9165 24.7966 25.0312 24.7491 25.1157 24.6645C25.2003 24.58 25.2478 24.4653 25.2478 24.3457V17.1322C25.2478 17.0126 25.2003 16.8979 25.1157 16.8134C25.0312 16.7288 24.9165 16.6813 24.7969 16.6813ZM24.3461 23.8949H22.5427V17.583H24.3461V23.8949ZM13.0749 24.7966H15.78C15.8995 24.7966 16.0142 24.7491 16.0988 24.6645C16.1833 24.58 16.2308 24.4653 16.2308 24.3457V21.6407C16.2308 21.5211 16.1833 21.4064 16.0988 21.3219C16.0142 21.2373 15.8995 21.1898 15.78 21.1898H13.0749C12.9553 21.1898 12.8406 21.2373 12.7561 21.3219C12.6715 21.4064 12.624 21.5211 12.624 21.6407V24.3457C12.624 24.4653 12.6715 24.58 12.7561 24.6645C12.8406 24.7491 12.9553 24.7966 13.0749 24.7966ZM13.5257 22.0915H15.3291V23.8949H13.5257V22.0915ZM20.2884 21.1898H17.5833C17.4638 21.1898 17.3491 21.2373 17.2645 21.3219C17.18 21.4064 17.1325 21.5211 17.1325 21.6407V24.3457C17.1325 24.4653 17.18 24.58 17.2645 24.6645C17.3491 24.7491 17.4638 24.7966 17.5833 24.7966H20.2884C20.408 24.7966 20.5227 24.7491 20.6072 24.6645C20.6918 24.58 20.7393 24.4653 20.7393 24.3457V21.6407C20.7393 21.5211 20.6918 21.4064 20.6072 21.3219C20.5227 21.2373 20.408 21.1898 20.2884 21.1898ZM19.8376 23.8949H18.0342V22.0915H19.8376V23.8949Z" fill="#15C8B3"/>
<path d="M25.6983 5.41017C26.0567 5.4091 26.4001 5.26626 26.6535 5.01284C26.9069 4.75942 27.0498 4.41602 27.0508 4.05763V1.35254C27.0498 0.994155 26.9069 0.650752 26.6535 0.397333C26.4001 0.143914 26.0567 0.00107036 25.6983 8.77712e-09H5.41017C5.34634 -1.27256e-05 5.28328 0.0138315 5.22532 0.0405762L0.266 2.29481C0.187287 2.33068 0.120552 2.38842 0.0737562 2.46117C0.0269599 2.53392 0.00207757 2.61859 0.00207757 2.70509C0.00207757 2.79158 0.0269599 2.87625 0.0737562 2.949C0.120552 3.02175 0.187287 3.07949 0.266 3.11536L5.22532 5.36959C5.28328 5.39634 5.34634 5.41018 5.41017 5.41017H7.29471C7.24222 5.55475 7.21478 5.70721 7.21356 5.86102V6.33441C7.21286 6.42815 7.18296 6.51935 7.12801 6.59531C7.07306 6.67127 6.9958 6.72821 6.90698 6.7582C6.65697 6.84784 6.41169 6.95017 6.1721 7.06478C6.08833 7.10505 5.99428 7.11886 5.90246 7.10436C5.81065 7.08987 5.72543 7.04775 5.65814 6.98363L5.32451 6.64098C5.07002 6.38764 4.72555 6.24541 4.36646 6.24541C4.00737 6.24541 3.66289 6.38764 3.40841 6.64098L2.13251 7.91688C2.00671 8.04284 1.90701 8.19238 1.83913 8.35695C1.77126 8.52151 1.73653 8.69786 1.73695 8.87587C1.73737 9.05388 1.77292 9.23006 1.84158 9.39431C1.91023 9.55855 2.01063 9.70763 2.13702 9.83298L2.47064 10.1666C2.53636 10.2329 2.5799 10.3179 2.59524 10.41C2.61059 10.502 2.59698 10.5966 2.55631 10.6806C2.4409 10.9214 2.33856 11.1682 2.24973 11.42C2.21897 11.5079 2.16171 11.5842 2.08582 11.6383C2.00992 11.6924 1.91913 11.7217 1.82593 11.722H1.35254C0.994155 11.7231 0.650752 11.8659 0.397333 12.1194C0.143914 12.3728 0.00107035 12.7162 0 13.0746V14.878C0.00107035 15.2364 0.143914 15.5798 0.397333 15.8332C0.650752 16.0866 0.994155 16.2294 1.35254 16.2305H1.82593C1.91968 16.2312 2.01088 16.2611 2.08683 16.3161C2.16279 16.371 2.21973 16.4483 2.24973 16.5371C2.33937 16.7871 2.44169 17.0324 2.55631 17.272C2.59658 17.3557 2.61039 17.4498 2.59589 17.5416C2.58139 17.6334 2.53928 17.7186 2.47515 17.7859L2.13251 18.1196C1.87917 18.3741 1.73694 18.7185 1.73694 19.0776C1.73694 19.4367 1.87917 19.7812 2.13251 20.0357L3.40841 21.3116C3.53436 21.4374 3.68391 21.5371 3.84847 21.6049C4.01304 21.6728 4.18938 21.7075 4.36739 21.7071C4.54541 21.7067 4.72159 21.6711 4.88583 21.6025C5.05007 21.5338 5.19915 21.4334 5.32451 21.3071L5.65814 20.9734C5.7244 20.9077 5.80943 20.8642 5.90149 20.8488C5.99355 20.8335 6.0881 20.8471 6.1721 20.8878C6.41288 21.0032 6.6597 21.1055 6.91149 21.1943C6.99947 21.2251 7.07576 21.2824 7.12985 21.3583C7.18394 21.4341 7.21319 21.5249 7.21356 21.6181V22.0915C7.21463 22.4499 7.35747 22.7933 7.61089 23.0467C7.86431 23.3002 8.20772 23.443 8.5661 23.4441H10.3695C10.5233 23.4429 10.6758 23.4154 10.8203 23.3629V25.2475C10.8214 25.6059 10.9643 25.9493 11.2177 26.2027C11.4711 26.4561 11.8145 26.5989 12.1729 26.6H25.6983C26.0567 26.5989 26.4001 26.4561 26.6535 26.2027C26.9069 25.9493 27.0498 25.6059 27.0508 25.2475V7.66441C27.0498 7.30602 26.9069 6.96262 26.6535 6.7092C26.4001 6.45578 26.0567 6.31294 25.6983 6.31187H12.1729C12.0235 6.31311 11.8755 6.34058 11.7356 6.39302C11.7294 6.3739 11.7249 6.35429 11.722 6.33441V5.86102C11.7208 5.70721 11.6934 5.55475 11.6409 5.41017H25.6983ZM24.3458 0.901695H25.6983C25.8179 0.901695 25.9326 0.949195 26.0171 1.03375C26.1017 1.1183 26.1492 1.23297 26.1492 1.35254V4.05763C26.1492 4.1772 26.1017 4.29187 26.0171 4.37643C25.9326 4.46098 25.8179 4.50848 25.6983 4.50848H24.3458V0.901695ZM4.95932 4.26051L1.5419 2.70509L4.95932 1.14966V4.26051ZM11.722 7.66441C11.722 7.54484 11.7695 7.43016 11.8541 7.34561C11.9386 7.26106 12.0533 7.21356 12.1729 7.21356H25.6983C25.8179 7.21356 25.9326 7.26106 26.0171 7.34561C26.1017 7.43016 26.1492 7.54484 26.1492 7.66441V25.2475C26.1492 25.367 26.1017 25.4817 26.0171 25.5663C25.9326 25.6508 25.8179 25.6983 25.6983 25.6983H12.1729C12.0533 25.6983 11.9386 25.6508 11.8541 25.5663C11.7695 25.4817 11.722 25.367 11.722 25.2475V7.66441ZM10.8203 18.2729C10.3832 18.413 9.92689 18.4845 9.4678 18.4847C8.27208 18.4847 7.12533 18.0098 6.27982 17.1642C5.43432 16.3187 4.95932 15.172 4.95932 13.9763C4.95932 12.7806 5.43432 11.6338 6.27982 10.7883C7.12533 9.9428 8.27208 9.4678 9.4678 9.4678C9.92689 9.46807 10.3832 9.53955 10.8203 9.6797V18.2729ZM10.8203 7.66441V8.74193C10.0202 8.5328 9.18272 8.5099 8.37232 8.67498C7.56192 8.84007 6.80016 9.18876 6.14557 9.69425C5.49099 10.1997 4.96101 10.8486 4.59636 11.5909C4.23171 12.3332 4.04209 13.1492 4.04209 13.9763C4.04209 14.8033 4.23171 15.6194 4.59636 16.3617C4.96101 17.104 5.49099 17.7528 6.14557 18.2583C6.80016 18.7638 7.56192 19.1125 8.37232 19.2776C9.18272 19.4427 10.0202 19.4197 10.8203 19.2106V22.0915C10.8203 22.2111 10.7728 22.3258 10.6883 22.4103C10.6037 22.4949 10.4891 22.5424 10.3695 22.5424H8.5661C8.44653 22.5424 8.33185 22.4949 8.2473 22.4103C8.16276 22.3258 8.11526 22.2111 8.11526 22.0915V21.6181C8.11447 21.3391 8.02739 21.0671 7.86596 20.8395C7.70453 20.6119 7.47665 20.4398 7.21356 20.3468C6.97912 20.2611 6.76722 20.1754 6.55983 20.0762C6.30739 19.9548 6.02346 19.9147 5.74726 19.9615C5.47106 20.0084 5.21622 20.1398 5.01793 20.3377L4.68431 20.6714C4.59983 20.7553 4.48557 20.8025 4.36646 20.8025C4.24735 20.8025 4.13308 20.7553 4.04861 20.6714L2.77271 19.3955C2.68814 19.3116 2.64019 19.1977 2.63935 19.0785C2.63851 18.9594 2.68483 18.8448 2.7682 18.7598L3.11085 18.4261C3.30726 18.2269 3.43735 17.9718 3.48335 17.6959C3.52934 17.4199 3.489 17.1364 3.36783 16.8842C3.26864 16.6769 3.18298 16.465 3.09732 16.235C3.0054 15.9709 2.8337 15.7418 2.60594 15.5795C2.37818 15.4171 2.10562 15.3295 1.82593 15.3288H1.35254C1.23297 15.3288 1.1183 15.2813 1.03375 15.1968C0.949195 15.1122 0.901695 14.9975 0.901695 14.878V13.0746C0.901695 12.955 0.949195 12.8403 1.03375 12.7558C1.1183 12.6712 1.23297 12.6237 1.35254 12.6237H1.82593C2.10498 12.6229 2.37696 12.5359 2.60458 12.3744C2.83219 12.213 3.00431 11.9851 3.09732 11.722C3.18298 11.4876 3.26864 11.2757 3.36783 11.0683C3.48929 10.8159 3.52937 10.5319 3.48253 10.2557C3.43569 9.97953 3.30424 9.72469 3.10634 9.52641L2.77271 9.19278C2.68874 9.10831 2.64161 8.99404 2.64161 8.87493C2.64161 8.75583 2.68874 8.64156 2.77271 8.55709L4.04861 7.28119C4.13249 7.19661 4.24642 7.14867 4.36553 7.14783C4.48464 7.14698 4.59924 7.1933 4.68431 7.27668L5.01793 7.61932C5.21719 7.81573 5.47223 7.94583 5.74821 7.99182C6.02419 8.03782 6.30764 7.99748 6.55983 7.87631C6.76722 7.77712 6.97912 7.69146 7.20905 7.6058C7.47321 7.51388 7.70228 7.34217 7.86462 7.11441C8.02696 6.88666 8.11454 6.6141 8.11526 6.33441V5.86102C8.11526 5.74145 8.16276 5.62677 8.2473 5.54222C8.33185 5.45767 8.44653 5.41017 8.5661 5.41017H10.3695C10.4891 5.41017 10.6037 5.45767 10.6883 5.54222C10.7728 5.62677 10.8203 5.74145 10.8203 5.86102V6.33441C10.8224 6.56776 10.8862 6.79641 11.0052 6.99715C10.8865 7.19966 10.8227 7.42968 10.8203 7.66441ZM23.4441 4.50848H5.86102V3.15593H23.4441V4.50848ZM23.4441 2.25424H5.86102V0.901695H23.4441V2.25424Z" fill="#15C8B3"/>
</svg>
