<svg width="29" height="29" viewBox="0 0 29 29" fill="none" xmlns="http://www.w3.org/2000/svg">
<path d="M28.4285 14.2469C27.6122 13.2128 26.139 13.0111 25.0746 13.7875L18.4779 18.5999L15.1529 16.1527C14.5048 15.6836 13.7394 15.4357 12.9393 15.4357H12.3389C12.0529 15.4357 11.8211 15.6676 11.8211 15.9535C11.8211 16.2395 12.0529 16.4713 12.3389 16.4713H12.9393C13.5199 16.4713 14.0754 16.6513 14.5424 16.9892L17.6005 19.24L16.2474 20.2271C15.7007 20.6259 14.9875 20.6809 14.3861 20.3705L12.5159 19.4052C12.2618 19.274 11.9494 19.3737 11.8183 19.6279C11.6871 19.8819 11.7868 20.1943 12.0409 20.3254L13.9111 21.2907C14.8631 21.7821 15.9923 21.6951 16.8578 21.0637L25.685 14.6242C26.2977 14.1771 27.1458 14.2934 27.6156 14.8886C28.1532 15.5696 28.057 16.5436 27.3965 17.1061L16.2159 26.6293C15.5193 27.2226 14.5641 27.3672 13.7232 27.0067L7.24397 24.2293V15.5978C7.24397 14.8127 6.60519 14.1739 5.82002 14.1739H1.42395C0.638779 14.1739 0 14.8127 0 15.5978V24.7637C0 25.5489 0.638779 26.1877 1.42395 26.1877H5.82002C6.41198 26.1877 6.92057 25.8245 7.1351 25.3093L13.3152 27.9586C14.5204 28.4751 15.8892 28.2679 16.8875 27.4177L28.068 17.8945C29.1544 16.9692 29.3127 15.367 28.4285 14.2469ZM5.82002 25.1521H1.42395C1.2098 25.1521 1.0356 24.9779 1.0356 24.7637V15.5978C1.0356 15.3837 1.2098 15.2095 1.42395 15.2095H5.82002C6.03417 15.2095 6.20837 15.3837 6.20837 15.5978V24.7637C6.20837 24.9779 6.03417 25.1521 5.82002 25.1521ZM3.60395 12.7266L24.5937 12.736C24.8797 12.736 25.1115 12.5042 25.1115 12.2182V0.526185C25.1115 0.240201 24.8797 0.00838588 24.5937 0.00838588H18.6428C18.3568 0.00838588 18.125 0.240201 18.125 0.526185V6.26704L15.2529 4.00448C15.0649 3.85638 14.8 3.85638 14.612 4.00448L12.3169 5.81251C12.2609 4.47661 11.2424 3.38427 9.93437 3.20371L10.6901 1.88582C10.841 1.62262 10.8756 1.31849 10.7875 1.02948C10.6988 0.738689 10.4886 0.49338 10.2109 0.356408L9.77519 0.141596C9.30682 -0.0894598 8.7406 0.0200473 8.39846 0.407891L7.88843 0.985958C7.84599 1.03408 7.7561 1.032 7.71565 0.985611L7.19884 0.39231C6.87256 0.0177089 6.34231 -0.102734 5.87937 0.0923891L5.25709 0.354733C4.95392 0.482603 4.72314 0.732021 4.62397 1.03908C4.52701 1.33923 4.56591 1.66661 4.73066 1.9372L5.49826 3.19816C4.13957 3.37245 3.08615 4.52889 3.08615 5.92609V7.76623C3.08615 8.98709 2.63954 9.72933 2.23772 10.5401C1.73866 11.5471 2.47457 12.7266 3.60395 12.7266ZM15.5723 11.6932H14.3223V9.15924H15.5723V11.6932ZM19.1606 1.04398H24.0759V11.7004H19.1606V1.04398ZM14.9325 5.07039L18.125 7.58536V11.6932H16.6079V9.07186C16.6079 8.549 16.1825 8.12364 15.6597 8.12364H14.2349C13.7121 8.12364 13.2867 8.549 13.2867 9.07186V11.6932L11.7399 11.6921V7.58536L14.9325 5.07039ZM5.65944 1.30898L6.28169 1.04664C6.32903 1.0266 6.38769 1.03773 6.41794 1.07252L6.93479 1.66582C7.38716 2.18518 8.20935 2.18757 8.66501 1.6711L9.175 1.09303C9.20695 1.05681 9.2694 1.04673 9.31719 1.0704C10.0374 1.42554 9.87813 1.21995 8.75627 3.17636L6.69663 3.17513C5.59513 1.36568 5.52563 1.36544 5.65944 1.30898ZM3.16561 11C3.61548 10.0922 4.12175 9.22394 4.12175 7.76623V5.92609C4.12175 4.97997 4.89896 4.21022 5.85396 4.21022L9.55175 4.21243C10.5071 4.21243 11.2843 4.98218 11.2843 5.92831V6.62599L10.9017 6.92737C10.7771 7.02553 10.7043 7.17546 10.7043 7.33411V11.6915L3.60395 11.691C3.24309 11.691 3.00762 11.3187 3.16561 11Z" fill="#BC7964"/>
<path d="M22.5861 3.89808C22.8721 3.89808 23.1039 3.66627 23.1039 3.38028V3.07676C23.1039 2.79077 22.8721 2.55896 22.5861 2.55896C22.3002 2.55896 22.0683 2.79077 22.0683 3.07676V3.38028C22.0683 3.66627 22.3002 3.89808 22.5861 3.89808ZM20.5479 3.89808C20.8339 3.89808 21.0657 3.66627 21.0657 3.38028V3.07676C21.0657 2.79077 20.8339 2.55896 20.5479 2.55896C20.2619 2.55896 20.0301 2.79077 20.0301 3.07676V3.38028C20.0301 3.66627 20.2619 3.89808 20.5479 3.89808ZM22.5861 5.92083C22.8721 5.92083 23.1039 5.68901 23.1039 5.40303V5.09951C23.1039 4.81352 22.8721 4.58171 22.5861 4.58171C22.3002 4.58171 22.0683 4.81352 22.0683 5.09951V5.40303C22.0683 5.68901 22.3002 5.92083 22.5861 5.92083ZM20.5479 5.92083C20.8339 5.92083 21.0657 5.68901 21.0657 5.40303V5.09951C21.0657 4.81352 20.8339 4.58171 20.5479 4.58171C20.2619 4.58171 20.0301 4.81352 20.0301 5.09951V5.40303C20.0301 5.68901 20.2619 5.92083 20.5479 5.92083ZM22.6893 6.82347C22.4033 6.82347 22.1715 7.05528 22.1715 7.34127V7.64479C22.1715 7.93077 22.4033 8.16259 22.6893 8.16259C22.9753 8.16259 23.2071 7.93077 23.2071 7.64479V7.34127C23.2071 7.05528 22.9753 6.82347 22.6893 6.82347ZM20.6511 6.82347C20.3651 6.82347 20.1333 7.05528 20.1333 7.34127V7.64479C20.1333 7.93077 20.3651 8.16259 20.6511 8.16259C20.9371 8.16259 21.1689 7.93077 21.1689 7.64479V7.34127C21.1689 7.05528 20.9371 6.82347 20.6511 6.82347ZM22.6893 8.84621C22.4033 8.84621 22.1715 9.07803 22.1715 9.36401V9.66754C22.1715 9.95352 22.4033 10.1853 22.6893 10.1853C22.9753 10.1853 23.2071 9.95352 23.2071 9.66754V9.36401C23.2071 9.07803 22.9753 8.84621 22.6893 8.84621ZM20.6511 8.84621C20.3651 8.84621 20.1333 9.07803 20.1333 9.36401V9.66754C20.1333 9.95352 20.3651 10.1853 20.6511 10.1853C20.9371 10.1853 21.1689 9.95352 21.1689 9.66754V9.36401C21.1689 9.07803 20.9371 8.84621 20.6511 8.84621ZM7.70338 8.389C7.9413 8.389 8.13487 8.58257 8.13487 8.82049C8.13487 9.0584 7.9413 9.25194 7.70338 9.25194C7.51809 9.25194 7.35378 9.13422 7.29449 8.95898C7.20287 8.68807 6.90911 8.54288 6.63805 8.63444C6.36717 8.72609 6.22185 9.02 6.31351 9.29088C6.45726 9.71578 6.78273 10.0403 7.18558 10.1923V10.5114C7.18558 10.7974 7.4174 11.0292 7.70338 11.0292C7.98937 11.0292 8.22118 10.7974 8.22118 10.5114V10.1929C8.77532 9.98312 9.17047 9.4472 9.17047 8.82049C9.17047 8.01152 8.51235 7.3534 7.70338 7.3534C7.46547 7.3534 7.27193 7.15986 7.27193 6.92195C7.27193 6.68403 7.46547 6.49046 7.70338 6.49046C7.84276 6.49046 7.97436 6.55844 8.05545 6.67231C8.22124 6.90526 8.54458 6.95965 8.77757 6.79376C9.01052 6.6279 9.06491 6.30459 8.89902 6.07164C8.72798 5.83142 8.49035 5.65151 8.22118 5.54975V5.14182C8.22118 4.85584 7.98937 4.62402 7.70338 4.62402C7.4174 4.62402 7.18558 4.85584 7.18558 5.14182V5.54952C6.63147 5.75929 6.23633 6.29522 6.23633 6.92195C6.23633 7.73088 6.89445 8.389 7.70338 8.389Z" fill="#BC7964"/>
<path d="M10.5483 16.5211C10.8701 16.5211 11.1309 16.2603 11.1309 15.9386C11.1309 15.6169 10.8701 15.3561 10.5483 15.3561C10.2266 15.3561 9.96582 15.6169 9.96582 15.9386C9.96582 16.2603 10.2266 16.5211 10.5483 16.5211Z" fill="#BC7964"/>
<path d="M8.73584 16.5211C9.05756 16.5211 9.31837 16.2603 9.31837 15.9386C9.31837 15.6169 9.05756 15.3561 8.73584 15.3561C8.41412 15.3561 8.15332 15.6169 8.15332 15.9386C8.15332 16.2603 8.41412 16.5211 8.73584 16.5211Z" fill="#BC7964"/>
</svg>
