<svg width="65" height="58" viewBox="0 0 65 58" fill="none" xmlns="http://www.w3.org/2000/svg">
<path d="M21.0219 24.0733C20.8231 24.0734 20.6298 24.1392 20.4723 24.2605C20.3148 24.3818 20.2018 24.5518 20.151 24.744C19.15 28.8082 18.6294 30.3198 18.4793 32.0716C18.0388 29.1686 17.9487 29.559 16.8576 24.754C16.8107 24.5608 16.7004 24.3887 16.5444 24.2654C16.3884 24.142 16.1956 24.0744 15.9967 24.0733H15.8165C15.619 24.0739 15.4272 24.14 15.2714 24.2614C15.1155 24.3828 15.0044 24.5526 14.9556 24.744C13.8244 29.3888 13.3339 30.8504 13.2539 32.0716C12.9535 29.9494 12.8935 30.0095 11.6021 24.744C11.5437 24.5144 11.3965 24.3173 11.1928 24.1962C10.9891 24.0752 10.7457 24.0399 10.516 24.0984C10.2864 24.1568 10.0893 24.304 9.96823 24.5077C9.84715 24.7114 9.81193 24.9548 9.87034 25.1845L11.8724 33.0827C11.9446 33.3705 12.1109 33.6259 12.3449 33.8084C12.5788 33.9909 12.867 34.09 13.1638 34.09C13.4605 34.09 13.7487 33.9909 13.9826 33.8084C14.2166 33.6259 14.3829 33.3705 14.4551 33.0827C15.0457 31.0329 15.517 28.9506 15.8666 26.8462C16.2254 28.9454 16.6965 31.0239 17.278 33.0727C17.3478 33.3593 17.5123 33.6141 17.7448 33.7957C17.9773 33.9774 18.2643 34.0753 18.5594 34.0737C18.854 34.0736 19.1401 33.975 19.3722 33.7936C19.6044 33.6122 19.7693 33.3585 19.8407 33.0727L21.8428 25.1745C21.8739 25.047 21.8765 24.9142 21.8503 24.7857C21.8242 24.6571 21.77 24.5359 21.6916 24.4307C21.6131 24.3255 21.5125 24.2389 21.3967 24.1771C21.2809 24.1153 21.153 24.0799 21.0219 24.0733ZM35.0364 24.0733C34.8389 24.0739 34.6471 24.14 34.4913 24.2614C34.3355 24.3828 34.2244 24.5526 34.1756 24.744C33.1745 28.8082 32.644 30.3198 32.5038 32.0716C32.0634 29.1686 31.9532 29.509 30.8721 24.754C30.8268 24.5599 30.717 24.3869 30.5606 24.2632C30.4043 24.1396 30.2106 24.0726 30.0112 24.0733H29.791C29.5935 24.0739 29.4017 24.14 29.2458 24.2614C29.09 24.3828 28.9789 24.5526 28.9301 24.744C27.7989 29.3989 27.3084 30.8504 27.2384 32.0716C26.8379 29.2587 26.6678 29.4289 25.5766 24.744C25.5263 24.5534 25.4148 24.3846 25.2593 24.2635C25.1038 24.1424 24.9129 24.0755 24.7157 24.0733C24.5802 24.0737 24.4465 24.105 24.3249 24.1648C24.2032 24.2246 24.0969 24.3114 24.0138 24.4186C23.9308 24.5257 23.8734 24.6504 23.8458 24.7832C23.8182 24.9159 23.8213 25.0531 23.8548 25.1845L25.8569 33.0827C25.9326 33.366 26.0997 33.6165 26.3323 33.7952C26.5649 33.9738 26.85 34.0707 27.1433 34.0707C27.4366 34.0707 27.7216 33.9738 27.9542 33.7952C28.1868 33.6165 28.3539 33.366 28.4296 33.0827C29.0223 31.0334 29.4936 28.951 29.8411 26.8462C30.1977 28.9459 30.6689 31.0244 31.2525 33.0727C31.3223 33.3593 31.4868 33.6141 31.7193 33.7957C31.9518 33.9774 32.2388 34.0753 32.5339 34.0737C32.8297 34.0741 33.1173 33.9758 33.3511 33.7946C33.585 33.6133 33.7518 33.3593 33.8252 33.0727L35.8273 25.1745C35.8581 25.0493 35.8615 24.919 35.8371 24.7924C35.8127 24.6659 35.7611 24.5461 35.6859 24.4415C35.6107 24.3368 35.5137 24.2496 35.4016 24.1861C35.2895 24.1225 35.1649 24.0841 35.0364 24.0733ZM49.051 24.0733C48.8534 24.0739 48.6617 24.14 48.5058 24.2614C48.35 24.3828 48.2389 24.5526 48.1901 24.744C47.1891 28.8082 46.6585 30.3198 46.5184 32.0716C46.0779 29.1686 45.9778 29.559 44.8867 24.754C44.8414 24.5599 44.7315 24.3869 44.5752 24.2632C44.4188 24.1396 44.2251 24.0726 44.0258 24.0733H43.8055C43.608 24.0739 43.4162 24.14 43.2604 24.2614C43.1045 24.3828 42.9935 24.5526 42.9447 24.744C41.8135 29.3888 41.323 30.8504 41.2529 32.0716C40.8525 29.2587 40.6823 29.4289 39.5912 24.744C39.5694 24.6236 39.5231 24.5089 39.4551 24.4071C39.3871 24.3054 39.2989 24.2187 39.1959 24.1525C39.0929 24.0864 38.9774 24.0422 38.8566 24.0226C38.7357 24.0031 38.6122 24.0087 38.4936 24.039C38.375 24.0694 38.264 24.1238 38.1673 24.199C38.0707 24.2741 37.9907 24.3684 37.9321 24.4758C37.8735 24.5833 37.8377 24.7017 37.8269 24.8236C37.8161 24.9456 37.8306 25.0684 37.8694 25.1845L39.8715 33.0827C39.9471 33.366 40.1142 33.6165 40.3468 33.7952C40.5794 33.9738 40.8645 34.0707 41.1578 34.0707C41.4511 34.0707 41.7362 33.9738 41.9688 33.7952C42.2014 33.6165 42.3685 33.366 42.4441 33.0827C43.0347 31.0329 43.506 28.9506 43.8556 26.8462C44.2144 28.9454 44.6856 31.0239 45.2671 33.0727C45.3405 33.3593 45.5073 33.6133 45.7411 33.7946C45.975 33.9758 46.2625 34.0741 46.5584 34.0737C46.8543 34.0741 47.1418 33.9758 47.3757 33.7946C47.6095 33.6133 47.7763 33.3593 47.8497 33.0727L49.8518 25.1745C49.8827 25.0486 49.8858 24.9174 49.8608 24.7902C49.8358 24.663 49.7834 24.5428 49.7071 24.4379C49.6309 24.3331 49.5327 24.2461 49.4193 24.1831C49.306 24.1202 49.1803 24.0827 49.051 24.0733ZM51.0531 32.0816C50.8551 32.0816 50.6615 32.1403 50.4969 32.2503C50.3323 32.3603 50.204 32.5167 50.1282 32.6996C50.0525 32.8825 50.0326 33.0838 50.0713 33.278C50.1099 33.4722 50.2052 33.6505 50.3452 33.7905C50.4852 33.9305 50.6636 34.0259 50.8578 34.0645C51.0519 34.1031 51.2532 34.0833 51.4361 34.0075C51.6191 33.9317 51.7754 33.8034 51.8854 33.6388C51.9954 33.4742 52.0541 33.2807 52.0541 33.0827C52.0541 32.8172 51.9486 32.5626 51.7609 32.3748C51.5732 32.1871 51.3186 32.0816 51.0531 32.0816Z" fill="black"/>
<path d="M59.3616 19.0982C57.3235 13.5007 53.6129 8.66566 48.733 5.24913C43.8531 1.83259 38.0403 0 32.0833 0C26.1263 0 20.3135 1.83259 15.4336 5.24913C10.5537 8.66566 6.84302 13.5007 4.80499 19.0982C3.51253 19.15 2.29029 19.7001 1.39451 20.6332C0.498728 21.5663 -0.00103358 22.8099 1.60498e-06 24.1034V34.1138C-0.000374837 35.4207 0.510435 36.6759 1.42327 37.6112C2.3361 38.5465 3.57854 39.0876 4.88507 39.119C6.95387 44.6631 10.6675 49.4426 15.5286 52.8171C20.3896 56.1916 26.1658 58 32.0833 58C38.0008 58 43.777 56.1916 48.638 52.8171C53.499 49.4426 57.2127 44.6631 59.2815 39.119C60.5704 39.0622 61.7876 38.51 62.6792 37.5774C63.5707 36.6448 64.0677 35.404 64.0665 34.1138V24.1034C64.0688 22.8264 63.5828 21.5968 62.7082 20.6663C61.8335 19.7358 60.6363 19.1749 59.3616 19.0982ZM7.00727 19.0682C8.13769 16.1363 9.77422 13.4257 11.8423 11.0599C14.1636 12.2901 16.5972 13.2957 19.1098 14.063C18.6121 15.7073 18.2077 17.3783 17.8986 19.0682H7.00727ZM31.0322 2.06057V14.073C27.8641 13.9918 24.7148 13.5587 21.6425 12.7817C23.8948 6.7154 27.3284 2.71125 31.0322 2.06057ZM33.0343 2.06057C36.7681 2.65118 40.2417 6.66535 42.5141 12.7316C39.4127 13.5181 36.2329 13.9546 33.0343 14.033V2.06057ZM38.53 2.73127C43.1799 3.86625 47.4437 6.21926 50.8828 9.54834C48.8177 10.6132 46.6599 11.4878 44.4361 12.161C43.2562 8.58478 41.2301 5.34638 38.53 2.72126V2.73127ZM19.7104 12.1911C17.4811 11.5194 15.3168 10.6483 13.2437 9.58838C16.6846 6.23529 20.9601 3.86421 25.6266 2.72126C22.9242 5.35422 20.895 8.59883 19.7104 12.1811V12.1911ZM21.0218 14.6536C24.2951 15.4954 27.6534 15.9623 31.0322 16.0451V19.0482H19.8906C20.1867 17.5637 20.5644 16.0966 21.0218 14.6536ZM33.0343 16.0351C36.4511 15.9512 39.847 15.4742 43.1548 14.6136C43.6097 16.0761 43.9807 17.5634 44.2659 19.0682H33.0343V16.0351ZM46.308 19.0382C45.9952 17.3473 45.5841 15.6761 45.0768 14.033C47.5847 13.2706 50.0121 12.2648 52.3243 11.0299C54.4102 13.3918 56.0638 16.1027 57.2093 19.0382H46.308ZM33.0343 55.8864V44.1242C36.2024 44.2047 39.3517 44.6379 42.424 45.4155C40.1617 51.3617 36.7181 55.3058 33.0343 55.8864ZM31.0322 55.8864C27.3784 55.2457 24.0249 51.3117 21.7225 45.4055C24.77 44.6415 27.8916 44.2119 31.0322 44.1242V55.8864ZM25.6266 55.2257C21.0337 54.0901 16.817 51.7747 13.3939 48.5088C15.4498 47.486 17.5899 46.642 19.7905 45.9861C20.9799 49.4803 22.9798 52.6431 25.6266 55.2157V55.2257ZM44.366 45.9861C46.5547 46.6516 48.6815 47.5057 50.7226 48.5388C47.3112 51.793 43.1078 54.0983 38.53 55.2257C41.1778 52.65 43.1777 49.4837 44.366 45.9861ZM45.0467 44.0842C45.5594 42.4419 45.9739 40.7705 46.288 39.079H57.1293C55.9516 41.9817 54.2783 44.6576 52.1841 46.9872C49.9024 45.7955 47.5125 44.8235 45.0467 44.0842ZM43.1247 43.5336C39.852 42.6863 36.4938 42.2128 33.1144 42.1221V39.119H44.2259C43.9249 40.609 43.5473 42.0825 43.0947 43.5336H43.1247ZM31.0322 42.1121C27.6535 42.1878 24.2947 42.6513 21.0218 43.4935C20.5681 42.0469 20.1938 40.5765 19.9006 39.089H31.0322V42.1121ZM17.8986 39.109C18.211 40.7802 18.6221 42.4315 19.1298 44.0541C16.643 44.8011 14.233 45.7833 11.9324 46.9872C9.83919 44.6644 8.17196 41.9907 7.00727 39.089L17.8986 39.109ZM62.0644 34.1038C62.0644 34.9003 61.748 35.6641 61.1848 36.2273C60.6216 36.7905 59.8577 37.1069 59.0613 37.1069H5.00519C4.20872 37.1069 3.44486 36.7905 2.88167 36.2273C2.31848 35.6641 2.00208 34.9003 2.00208 34.1038V24.0934C2.00208 23.2969 2.31848 22.5331 2.88167 21.9699C3.44486 21.4067 4.20872 21.0903 5.00519 21.0903H59.0613C59.8577 21.0903 60.6216 21.4067 61.1848 21.9699C61.748 22.5331 62.0644 23.2969 62.0644 24.0934V34.1038Z" fill="black"/>
</svg>
