<svg width="32" height="32" viewBox="0 0 32 32" fill="none" xmlns="http://www.w3.org/2000/svg">
<path d="M15.9999 17.0664C15.0098 17.0664 14.0602 17.4597 13.3601 18.1599C12.6599 18.86 12.2666 19.8096 12.2666 20.7997C12.263 21.5626 12.4959 22.3079 12.9333 22.933L8.41068 23.9996C8.29135 24.0278 8.18538 24.0962 8.11058 24.1933C8.03578 24.2905 7.99674 24.4104 8.00001 24.533V31.4662C8.00001 31.6077 8.0562 31.7433 8.15622 31.8433C8.25624 31.9433 8.39189 31.9995 8.53334 31.9995H23.4665C23.6079 31.9995 23.7436 31.9433 23.8436 31.8433C23.9436 31.7433 23.9998 31.6077 23.9998 31.4662V24.533C24.0031 24.4104 23.964 24.2905 23.8892 24.1933C23.8144 24.0962 23.7084 24.0278 23.5891 23.9996L19.0665 22.933C19.5039 22.3079 19.7368 21.5626 19.7332 20.7997C19.7332 19.8096 19.3398 18.86 18.6397 18.1599C17.9396 17.4597 16.99 17.0664 15.9999 17.0664ZM15.9999 18.1331C16.5273 18.1331 17.0429 18.2895 17.4814 18.5825C17.9199 18.8755 18.2617 19.292 18.4635 19.7792C18.6654 20.2665 18.7182 20.8027 18.6153 21.3199C18.5124 21.8372 18.2584 22.3123 17.8855 22.6853C17.5126 23.0582 17.0374 23.3122 16.5201 23.4151C16.0029 23.518 15.4667 23.4652 14.9794 23.2633C14.4922 23.0615 14.0757 22.7197 13.7827 22.2812C13.4897 21.8427 13.3333 21.3271 13.3333 20.7997C13.3333 20.0925 13.6142 19.4142 14.1143 18.9141C14.6144 18.414 15.2927 18.1331 15.9999 18.1331ZM22.9331 30.9329H19.7332V27.1996H18.6665V30.9329H13.3333V27.1996H12.2666V30.9329H9.06667V24.9543L13.8026 23.8076C14.4383 24.2787 15.2086 24.5331 15.9999 24.5331C16.7912 24.5331 17.5615 24.2787 18.1972 23.8076L22.9331 24.9543V30.9329ZM10.1333 9.59986H21.8665C22.0079 9.59986 22.1436 9.54367 22.2436 9.44365C22.3436 9.34363 22.3998 9.20798 22.3998 9.06653V4.79993C22.4026 4.67591 22.362 4.5548 22.2851 4.45746C22.2082 4.36011 22.0998 4.29262 21.9785 4.2666L18.5065 3.55195C18.6087 3.26779 18.6628 2.96858 18.6665 2.66663C18.6665 1.95939 18.3856 1.28113 17.8855 0.781037C17.3854 0.280947 16.7071 0 15.9999 0C15.2927 0 14.6144 0.280947 14.1143 0.781037C13.6142 1.28113 13.3333 1.95939 13.3333 2.66663C13.337 2.96858 13.3911 3.26779 13.4933 3.55195L10.0213 4.2666C9.90002 4.29262 9.79159 4.36011 9.71469 4.45746C9.63779 4.5548 9.59723 4.67591 9.59999 4.79993V9.06653C9.59999 9.20798 9.65618 9.34363 9.7562 9.44365C9.85622 9.54367 9.99187 9.59986 10.1333 9.59986ZM15.9999 1.06665C16.3163 1.06665 16.6257 1.16049 16.8888 1.3363C17.1519 1.5121 17.357 1.76199 17.4781 2.05434C17.5992 2.3467 17.6309 2.6684 17.5691 2.97877C17.5074 3.28913 17.355 3.57422 17.1313 3.79798C16.9075 4.02174 16.6224 4.17413 16.312 4.23586C16.0017 4.2976 15.68 4.26591 15.3876 4.14481C15.0953 4.02371 14.8454 3.81864 14.6696 3.55553C14.4938 3.29241 14.3999 2.98307 14.3999 2.66663C14.3999 2.24229 14.5685 1.83533 14.8685 1.53527C15.1686 1.23522 15.5756 1.06665 15.9999 1.06665ZM10.6666 5.23192L14.0853 4.51727C14.3339 4.7737 14.6314 4.97759 14.9603 5.11683C15.2892 5.25606 15.6427 5.32781 15.9999 5.32781C16.3571 5.32781 16.7106 5.25606 17.0395 5.11683C17.3684 4.97759 17.6659 4.7737 17.9145 4.51727L21.3332 5.23192V8.53321H19.1999V6.39991H18.1332V8.53321H13.8666V6.39991H12.7999V8.53321H10.6666V5.23192ZM31.5783 12.7998L28.1064 12.0852C28.2086 11.801 28.2627 11.5018 28.2664 11.1998C28.2664 10.4926 27.9854 9.81433 27.4853 9.31425C26.9853 8.81416 26.307 8.53321 25.5998 8.53321C24.8925 8.53321 24.2143 8.81416 23.7142 9.31425C23.2141 9.81433 22.9331 10.4926 22.9331 11.1998C22.9368 11.5018 22.9909 11.801 23.0931 12.0852L19.6212 12.7998C19.4999 12.8258 19.3915 12.8933 19.3146 12.9907C19.2376 13.088 19.1971 13.2091 19.1999 13.3331V17.5997C19.1999 17.7412 19.256 17.8768 19.3561 17.9769C19.4561 18.0769 19.5917 18.1331 19.7332 18.1331H31.4663C31.6078 18.1331 31.7434 18.0769 31.8435 17.9769C31.9435 17.8768 31.9997 17.7412 31.9997 17.5997V13.3331C32.0024 13.2091 31.9619 13.088 31.885 12.9907C31.8081 12.8933 31.6996 12.8258 31.5783 12.7998ZM25.5998 9.59986C25.9162 9.59986 26.2255 9.6937 26.4887 9.8695C26.7518 10.0453 26.9568 10.2952 27.0779 10.5876C27.199 10.8799 27.2307 11.2016 27.169 11.512C27.1073 11.8223 26.9549 12.1074 26.7311 12.3312C26.5073 12.555 26.2223 12.7073 25.9119 12.7691C25.6015 12.8308 25.2798 12.7991 24.9875 12.678C24.6951 12.5569 24.4452 12.3518 24.2694 12.0887C24.0936 11.8256 23.9998 11.5163 23.9998 11.1998C23.9998 10.7755 24.1683 10.3685 24.4684 10.0685C24.7685 9.76843 25.1754 9.59986 25.5998 9.59986ZM30.933 17.0664H28.7997V14.9331H27.7331V17.0664H23.4665V14.9331H22.3998V17.0664H20.2665V13.7651L23.6851 13.0505C23.9337 13.3069 24.2313 13.5108 24.5602 13.65C24.8891 13.7893 25.2426 13.861 25.5998 13.861C25.9569 13.861 26.3104 13.7893 26.6393 13.65C26.9682 13.5108 27.2658 13.3069 27.5144 13.0505L30.933 13.7651V17.0664ZM0.533458 18.1331H12.2666C12.4081 18.1331 12.5437 18.0769 12.6437 17.9769C12.7438 17.8768 12.7999 17.7412 12.7999 17.5997V13.3331C12.8027 13.2091 12.7621 13.088 12.6852 12.9907C12.6083 12.8933 12.4999 12.8258 12.3786 12.7998L8.90667 12.0852C9.00887 11.801 9.06295 11.5018 9.06667 11.1998C9.06667 10.4926 8.78572 9.81433 8.28563 9.31425C7.78554 8.81416 7.10727 8.53321 6.40004 8.53321C5.6928 8.53321 5.01454 8.81416 4.51445 9.31425C4.01436 9.81433 3.73341 10.4926 3.73341 11.1998C3.73713 11.5018 3.79121 11.801 3.89341 12.0852L0.421459 12.7998C0.300165 12.8258 0.191736 12.8933 0.114835 12.9907C0.0379339 13.088 -0.00262757 13.2091 0.000132072 13.3331V17.5997C0.000132072 17.7412 0.0563215 17.8768 0.156339 17.9769C0.256357 18.0769 0.392011 18.1331 0.533458 18.1331ZM6.40004 9.59986C6.71648 9.59986 7.02582 9.6937 7.28894 9.8695C7.55205 10.0453 7.75713 10.2952 7.87822 10.5876C7.99932 10.8799 8.03101 11.2016 7.96927 11.512C7.90754 11.8223 7.75515 12.1074 7.53139 12.3312C7.30763 12.555 7.02254 12.7073 6.71218 12.7691C6.40181 12.8308 6.08011 12.7991 5.78775 12.678C5.4954 12.5569 5.24551 12.3518 5.06971 12.0887C4.8939 11.8256 4.80006 11.5163 4.80006 11.1998C4.80006 10.7755 4.96863 10.3685 5.26868 10.0685C5.56874 9.76843 5.9757 9.59986 6.40004 9.59986ZM1.06678 13.7651L4.4854 13.0505C4.73399 13.3069 5.03157 13.5108 5.36047 13.65C5.68937 13.7893 6.04288 13.861 6.40004 13.861C6.75719 13.861 7.11071 13.7893 7.43961 13.65C7.7685 13.5108 8.06608 13.3069 8.31468 13.0505L11.7333 13.7651V17.0664H9.59999V14.9331H8.53334V17.0664H4.26674V14.9331H3.20008V17.0664H1.06678V13.7651ZM25.0664 27.1996V28.2663H29.8664C30.0078 28.2663 30.1435 28.2101 30.2435 28.11C30.3435 28.01 30.3997 27.8744 30.3997 27.7329V23.4663H31.4663C31.5572 23.466 31.6466 23.4425 31.7259 23.398C31.8051 23.3535 31.8717 23.2895 31.9193 23.212C31.9668 23.1345 31.9938 23.0462 31.9976 22.9553C32.0014 22.8645 31.9819 22.7742 31.941 22.693L30.341 19.493C30.2963 19.4057 30.2283 19.3324 30.1445 19.2812C30.0608 19.23 29.9645 19.2029 29.8664 19.2029C29.7682 19.2029 29.6719 19.23 29.5882 19.2812C29.5045 19.3324 29.4365 19.4057 29.3917 19.493L27.7917 22.693C27.7508 22.7742 27.7313 22.8645 27.7351 22.9553C27.7389 23.0462 27.7659 23.1345 27.8135 23.212C27.861 23.2895 27.9276 23.3535 28.0069 23.398C28.0861 23.4425 28.1755 23.466 28.2664 23.4663H29.333V27.1996H25.0664ZM29.8664 20.9277L30.6024 22.3997H29.1304L29.8664 20.9277ZM2.13343 28.2663H6.93336V27.1996H2.66676V23.4663H3.73341C3.82432 23.466 3.91366 23.4425 3.99293 23.398C4.0722 23.3535 4.13877 23.2895 4.18633 23.212C4.23389 23.1345 4.26085 23.0462 4.26465 22.9553C4.26846 22.8645 4.24898 22.7742 4.20807 22.693L2.60809 19.493C2.56334 19.4057 2.49534 19.3324 2.41159 19.2812C2.32784 19.23 2.23159 19.2029 2.13343 19.2029C2.03528 19.2029 1.93902 19.23 1.85528 19.2812C1.77153 19.3324 1.70353 19.4057 1.65877 19.493L0.0587978 22.693C0.0178865 22.7742 -0.0015916 22.8645 0.00221334 22.9553C0.00601828 23.0462 0.0329799 23.1345 0.0805378 23.212C0.128096 23.2895 0.194671 23.3535 0.273941 23.398C0.353211 23.4425 0.442545 23.466 0.533458 23.4663H1.60011V27.7329C1.60011 27.8744 1.6563 28.01 1.75632 28.11C1.85633 28.2101 1.99199 28.2663 2.13343 28.2663ZM2.13343 20.9277L2.86942 22.3997H1.39744L2.13343 20.9277Z" fill="#928EF2"/>
</svg>
