<svg width="33" height="33" viewBox="0 0 33 33" fill="none" xmlns="http://www.w3.org/2000/svg">
<path d="M32.5939 4.77231L31.7816 4.62C31.68 4.31538 31.5785 4.06154 31.4262 3.75692L31.8831 3.09692C32.0354 2.89385 31.9847 2.64 31.8324 2.43692L30.6139 1.21846C30.4616 1.01538 30.157 1.01538 29.9539 1.11692L29.2939 1.57385C29.04 1.42154 28.7354 1.32 28.4308 1.21846L28.2785 0.406154C28.2277 0.152308 28.0247 0 27.7708 0H26.0447C25.7908 0 25.5877 0.152308 25.537 0.406154L25.3847 1.21846C25.08 1.32 24.8262 1.42154 24.5216 1.57385L23.8616 1.11692C23.6585 0.964615 23.4047 1.01538 23.2016 1.16769L21.9831 2.38615C21.8308 2.53846 21.78 2.84308 21.9324 3.04615L22.3893 3.70615C22.237 3.96 22.1354 4.26462 22.0339 4.56923L21.2216 4.72154C20.9677 4.77231 20.8154 4.97538 20.8154 5.22923V6.95538C20.8154 7.20923 20.9677 7.41231 21.2216 7.46308L22.0339 7.61538C22.1354 7.92 22.237 8.17385 22.3893 8.47846L21.9324 9.13846C21.78 9.34154 21.8308 9.59538 21.9831 9.79846L23.2016 11.0169C23.3539 11.1692 23.6585 11.22 23.8616 11.0677L24.5216 10.6108C24.7754 10.7631 25.08 10.8646 25.3847 10.9662L25.537 11.7785C25.5877 12.0323 25.7908 12.1846 26.0447 12.1846H27.7708C28.0247 12.1846 28.2277 12.0323 28.2785 11.7785L28.4308 10.9662C28.7354 10.8646 28.9893 10.7631 29.2939 10.6108L29.9539 11.0677C30.157 11.22 30.4108 11.1692 30.6139 11.0169L31.8324 9.79846C31.9847 9.64615 32.0354 9.34154 31.8831 9.13846L31.4262 8.47846C31.5785 8.22462 31.68 7.92 31.7816 7.61538L32.5939 7.46308C32.8477 7.41231 33 7.20923 33 6.95538V5.22923C33 5.02615 32.8477 4.82308 32.5939 4.77231ZM31.9847 6.6L31.2739 6.70154C31.0708 6.75231 30.9185 6.90461 30.8677 7.10769C30.7662 7.51385 30.6139 7.92 30.36 8.27538C30.2585 8.42769 30.2585 8.68154 30.36 8.83385L30.7662 9.44308L30.1062 10.0523L29.497 9.64615C29.3447 9.54461 29.0908 9.54461 28.9385 9.64615C28.5831 9.84923 28.177 10.0523 27.7708 10.1031C27.5677 10.1538 27.4154 10.3062 27.3647 10.5092L27.3139 11.1692H26.4508L26.3493 10.4585C26.2985 10.2554 26.1462 10.1031 25.9431 10.0523C25.537 9.95077 25.1308 9.79846 24.7754 9.54461C24.6231 9.44308 24.3693 9.44308 24.217 9.54461L23.6077 10.0015L22.9985 9.34154L23.4047 8.73231C23.5062 8.58 23.5062 8.32615 23.4047 8.17385C23.2016 7.81846 22.9985 7.41231 22.9477 7.00615C22.897 6.80308 22.7447 6.65077 22.5416 6.6L21.8308 6.44769V5.58462L22.5416 5.48308C22.7447 5.43231 22.897 5.28 22.9477 5.12769C23.0493 4.72154 23.2016 4.31538 23.4554 3.96C23.557 3.80769 23.557 3.55385 23.4554 3.40154L23.0493 2.79231L23.6585 2.18308L24.2677 2.58923C24.42 2.69077 24.6231 2.69077 24.8262 2.58923C25.1816 2.38615 25.5877 2.18308 25.9939 2.13231C26.197 2.08154 26.3493 1.92923 26.4 1.72615L26.5016 1.01538H27.3647L27.4662 1.72615C27.517 1.92923 27.6693 2.08154 27.8724 2.13231C28.2785 2.23385 28.6847 2.38615 29.04 2.64C29.1924 2.74154 29.4462 2.74154 29.5985 2.64L30.2077 2.23385L30.817 2.84308L30.4108 3.45231C30.3093 3.60462 30.3093 3.85846 30.4108 4.01077C30.6139 4.36615 30.817 4.77231 30.8677 5.17846C30.9185 5.38154 31.0708 5.53385 31.2739 5.58462L31.9847 5.73692V6.6Z" fill="#FF4F4F"/>
<path d="M26.9077 2.74146C25.08 2.74146 23.5569 4.26453 23.5569 6.09222C23.5569 7.91992 25.08 9.44299 26.9077 9.44299C28.7354 9.44299 30.2585 7.91992 30.2585 6.09222C30.2585 4.26453 28.7354 2.74146 26.9077 2.74146ZM26.9077 8.42761C25.6385 8.42761 24.5723 7.36145 24.5723 6.09222C24.5723 4.82299 25.6385 3.75684 26.9077 3.75684C28.1769 3.75684 29.2431 4.82299 29.2431 6.09222C29.2431 7.36145 28.1769 8.42761 26.9077 8.42761ZM22.44 12.743L20.5615 12.3876C20.3585 11.6768 20.0538 10.9661 19.6985 10.2553L20.8154 8.68146C20.9677 8.47838 20.9169 8.22453 20.7646 8.02145L18.3785 5.6353C18.2262 5.48299 17.9215 5.43222 17.7185 5.58453L16.1446 6.65069C15.4846 6.24453 14.7738 5.99069 14.0123 5.78761L13.7077 3.90915C13.6569 3.6553 13.4538 3.50299 13.2 3.50299H9.79846C9.54462 3.50299 9.34154 3.6553 9.29077 3.90915L8.93539 5.78761C8.17385 5.99069 7.46308 6.24453 6.80308 6.65069L5.22923 5.58453C5.02615 5.43222 4.77231 5.48299 4.56923 5.6353L2.13231 8.02145C1.98 8.17376 1.92923 8.47838 2.08154 8.68146L3.19846 10.1538C2.79231 10.8138 2.48769 11.5245 2.28462 12.2861L0.406154 12.5907C0.152308 12.6415 0 12.8445 0 13.0984V16.4999C0 16.7538 0.152308 16.9568 0.406154 17.0076L2.28462 17.3122C2.48769 18.0738 2.79231 18.7845 3.14769 19.4445L2.03077 21.0184C1.87846 21.2215 1.92923 21.4753 2.08154 21.6784L4.46769 24.1153C4.62 24.2676 4.92462 24.3184 5.12769 24.1661L6.24462 23.4045C6.39692 23.303 6.44769 23.1507 6.44769 22.9984V20.5615C6.44769 20.1045 6.54923 19.6476 6.70154 19.2415C6.75231 19.0891 6.75231 18.8861 6.6 18.7338C5.68615 17.6168 5.22923 16.2968 5.22923 14.8753C5.22923 11.5245 7.97077 8.73222 11.3723 8.73222C14.7738 8.73222 17.5154 11.4738 17.5154 14.8753C17.5154 16.2968 17.0585 17.6168 16.1446 18.7338C16.0431 18.8861 15.9923 19.0891 16.0431 19.2415C16.1954 19.6476 16.2969 20.1045 16.2969 20.5615V23.1507C16.2969 23.303 16.3985 23.4553 16.5 23.5568L17.5154 24.2676C17.6169 24.3184 17.7185 24.3691 17.82 24.3691C17.9723 24.3691 18.0738 24.3184 18.1754 24.2168L20.6123 21.8307C20.7646 21.6784 20.8154 21.3738 20.6631 21.1707L19.5969 19.5968C20.0031 18.9368 20.3077 18.2261 20.5108 17.4645L22.3892 17.1599C22.6431 17.1091 22.7954 16.9061 22.7954 16.6522L22.8462 13.2507C22.8462 12.9968 22.6431 12.7938 22.44 12.743ZM21.78 16.1953L20.0031 16.4999C19.8 16.5507 19.6477 16.703 19.5969 16.9061C19.3938 17.7691 19.0385 18.5815 18.5815 19.343C18.48 19.4953 18.48 19.7491 18.5815 19.9015L19.5969 21.3738L17.7692 23.1507L17.3123 22.8461V20.5107C17.3123 20.0538 17.2615 19.5461 17.1092 19.0891C18.0231 17.8707 18.5308 16.3984 18.5308 14.8245C18.5308 10.8645 15.3323 7.66607 11.3723 7.66607C7.41231 7.66607 4.21385 10.8645 4.21385 14.8245C4.21385 16.3984 4.72154 17.8707 5.63539 19.0891C5.48308 19.5461 5.43231 20.003 5.43231 20.5107V22.643L4.87385 23.0491L3.09692 21.2215L4.16308 19.7491C4.26462 19.5968 4.26462 19.343 4.16308 19.1907C3.70615 18.4291 3.35077 17.6168 3.14769 16.7538C3.09692 16.5507 2.94462 16.3984 2.74154 16.3476L0.964615 16.043V13.5045L2.79231 13.1999C2.99538 13.1491 3.14769 12.9968 3.19846 12.8445C3.40154 11.9815 3.75692 11.1691 4.21385 10.4076C4.31538 10.2553 4.31538 10.0015 4.21385 9.84915L3.19846 8.37684L5.02615 6.59992L6.49846 7.6153C6.65077 7.71684 6.85385 7.71684 7.05692 7.6153C7.81846 7.15838 8.63077 6.80299 9.49385 6.65069C9.69692 6.59992 9.84923 6.44761 9.9 6.24453L10.2554 4.46761H12.7938L13.0985 6.24453C13.1492 6.44761 13.3015 6.59992 13.5046 6.65069C14.3677 6.85376 15.18 7.20915 15.9415 7.66607C16.0938 7.76761 16.3477 7.76761 16.5 7.66607L17.9723 6.65069L19.7492 8.47838L18.7338 9.95069C18.6323 10.103 18.6323 10.3568 18.7338 10.5091C19.1908 11.2707 19.5462 12.1338 19.7492 12.9461C19.8 13.1491 19.9523 13.3015 20.1554 13.3522L21.9323 13.7076L21.78 16.1953Z" fill="#FF4F4F"/>
<path d="M14.8244 14.1139C14.8244 13.2118 14.466 12.3466 13.8281 11.7087C13.1902 11.0708 12.325 10.7124 11.4228 10.7124C10.5207 10.7124 9.6555 11.0708 9.01759 11.7087C8.37968 12.3466 8.0213 13.2118 8.0213 14.1139C8.0213 15.0161 8.37968 15.8813 9.01759 16.5192C9.6555 17.1571 10.5207 17.5155 11.4228 17.5155C12.325 17.5155 13.1902 17.1571 13.8281 16.5192C14.466 15.8813 14.8244 15.0161 14.8244 14.1139ZM8.98592 14.1139C8.98592 12.7939 10.0521 11.7278 11.3721 11.7278C12.6921 11.7278 13.7582 12.7939 13.7582 14.1139C13.7582 15.4339 12.6921 16.5001 11.3721 16.5001C10.0521 16.5001 8.98592 15.4339 8.98592 14.1139ZM13.1998 17.8201H9.64592C8.32592 17.8201 7.25977 19.0386 7.25977 20.5109V26.6539C7.25977 26.9586 7.46284 27.1616 7.76746 27.1616H8.83361V31.2739C8.83361 31.9339 9.39207 32.4924 10.0521 32.4924H12.8444C13.5044 32.4924 14.0628 31.9339 14.0628 31.2739V27.1616H15.129C15.4336 27.1616 15.6367 26.9586 15.6367 26.6539V20.5109C15.5859 19.0386 14.5198 17.8201 13.1998 17.8201ZM14.5705 26.1462H14.0121V23.2524C14.0121 22.9478 13.809 22.7447 13.5044 22.7447C13.1998 22.7447 12.9967 22.9478 12.9967 23.2524V31.2739C12.9967 31.3755 12.8952 31.477 12.7936 31.477H11.9305V26.857C11.9305 26.5524 11.7275 26.3493 11.4228 26.3493C11.1182 26.3493 10.9151 26.5524 10.9151 26.857V31.477H10.0013C9.89977 31.477 9.79823 31.3755 9.79823 31.2739V23.2524C9.79823 22.9478 9.59515 22.7447 9.29053 22.7447C8.98592 22.7447 8.78284 22.9478 8.78284 23.2524V26.1462H8.22438V20.5109C8.22438 19.597 8.83361 18.8355 9.59515 18.8355H13.149C13.9105 18.8355 14.5198 19.597 14.5198 20.5109V26.1462H14.5705Z" fill="#FF4F4F"/>
</svg>
