<svg width="30" height="30" viewBox="0 0 30 30" fill="none" xmlns="http://www.w3.org/2000/svg">
<path d="M12.6157 24.18L11.75 25.219L10.8843 24.18C10.8358 24.1262 10.7765 24.0831 10.7103 24.0536C10.6441 24.0242 10.5725 24.009 10.5 24.009C10.4275 24.009 10.3559 24.0242 10.2897 24.0536C10.2235 24.0831 10.1642 24.1262 10.1157 24.18L9.25 25.219L8.3843 24.18C8.3358 24.1262 8.27653 24.0831 8.21032 24.0536C8.14412 24.0242 8.07246 24.009 8 24.009C7.92754 24.009 7.85588 24.0242 7.78968 24.0536C7.72347 24.0831 7.6642 24.1262 7.6157 24.18L6.75 25.219L6 24.319V3C6.00048 2.26167 5.72778 1.54928 5.2344 1H20.5C21.0303 1.00056 21.5386 1.21145 21.9136 1.5864C22.2886 1.96135 22.4994 2.46974 22.5 3C22.5 3.13261 22.5527 3.25979 22.6464 3.35355C22.7402 3.44732 22.8674 3.5 23 3.5C23.1326 3.5 23.2598 3.44732 23.3536 3.35355C23.4473 3.25979 23.5 3.13261 23.5 3C23.4991 2.20462 23.1828 1.44206 22.6204 0.879644C22.0579 0.317225 21.2954 0.000873479 20.5 0H3C2.20462 0.000873479 1.44206 0.317225 0.879644 0.879644C0.317225 1.44206 0.000873479 2.20462 0 3V8.5C3.17554e-05 8.6169 0.0409631 8.73011 0.1157 8.82L1.3657 10.32C1.4142 10.3738 1.47348 10.4169 1.53968 10.4464C1.60588 10.4758 1.67754 10.491 1.75 10.491C1.82246 10.491 1.89412 10.4758 1.96032 10.4464C2.02652 10.4169 2.0858 10.3738 2.1343 10.32L3 9.281L3.8657 10.32C3.91266 10.3763 3.97142 10.4216 4.03783 10.4527C4.10424 10.4838 4.17667 10.4999 4.25 10.4999C4.32333 10.4999 4.39576 10.4838 4.46217 10.4527C4.52858 10.4216 4.58734 10.3763 4.6343 10.32L5 9.8812V24.5C5.00003 24.6169 5.04096 24.7301 5.1157 24.82L6.3657 26.32C6.4142 26.3738 6.47347 26.4169 6.53968 26.4464C6.60588 26.4758 6.67754 26.491 6.75 26.491C6.82246 26.491 6.89412 26.4758 6.96032 26.4464C7.02653 26.4169 7.0858 26.3738 7.1343 26.32L8 25.281L8.8657 26.32C8.9142 26.3738 8.97347 26.4169 9.03968 26.4464C9.10588 26.4758 9.17754 26.491 9.25 26.491C9.32246 26.491 9.39412 26.4758 9.46032 26.4464C9.52653 26.4169 9.5858 26.3738 9.6343 26.32L10.5 25.281L11.3657 26.32C11.4127 26.3763 11.4714 26.4216 11.5378 26.4527C11.6042 26.4838 11.6767 26.4999 11.75 26.4999C11.8233 26.4999 11.8958 26.4838 11.9622 26.4527C12.0286 26.4216 12.0873 26.3763 12.1343 26.32L13.3843 24.82C13.4692 24.7181 13.5101 24.5866 13.498 24.4545C13.486 24.3225 13.4219 24.2006 13.32 24.1157C13.2181 24.0308 13.0866 23.9899 12.9545 24.002C12.8225 24.014 12.7006 24.0781 12.6157 24.18ZM4.25 9.219L3.3843 8.18C3.3358 8.12616 3.27652 8.08311 3.21032 8.05365C3.14412 8.02419 3.07246 8.00896 3 8.00896C2.92754 8.00896 2.85588 8.02419 2.78968 8.05365C2.72348 8.08311 2.6642 8.12616 2.6157 8.18L1.75 9.219L1 8.319V3C1 2.46957 1.21071 1.96086 1.58579 1.58579C1.96086 1.21071 2.46957 1 3 1C3.53043 1 4.03914 1.21071 4.41421 1.58579C4.78929 1.96086 5 2.46957 5 3V8.3188L4.25 9.219ZM11.5 11C11.5 10.8674 11.5527 10.7402 11.6464 10.6464C11.7402 10.5527 11.8674 10.5 12 10.5H15.5C15.6326 10.5 15.7598 10.5527 15.8536 10.6464C15.9473 10.7402 16 10.8674 16 11C16 11.1326 15.9473 11.2598 15.8536 11.3536C15.7598 11.4473 15.6326 11.5 15.5 11.5H12C11.8674 11.5 11.7402 11.4473 11.6464 11.3536C11.5527 11.2598 11.5 11.1326 11.5 11ZM11.5 14C11.5 13.8674 11.5527 13.7402 11.6464 13.6464C11.7402 13.5527 11.8674 13.5 12 13.5H16.5C16.6326 13.5 16.7598 13.5527 16.8536 13.6464C16.9473 13.7402 17 13.8674 17 14C17 14.1326 16.9473 14.2598 16.8536 14.3536C16.7598 14.4473 16.6326 14.5 16.5 14.5H12C11.8674 14.5 11.7402 14.4473 11.6464 14.3536C11.5527 14.2598 11.5 14.1326 11.5 14ZM19.5 5.5H12C11.8674 5.5 11.7402 5.44732 11.6464 5.35355C11.5527 5.25979 11.5 5.13261 11.5 5C11.5 4.86739 11.5527 4.74021 11.6464 4.64645C11.7402 4.55268 11.8674 4.5 12 4.5H19.5C19.6326 4.5 19.7598 4.55268 19.8536 4.64645C19.9473 4.74021 20 4.86739 20 5C20 5.13261 19.9473 5.25979 19.8536 5.35355C19.7598 5.44732 19.6326 5.5 19.5 5.5ZM17 8C17 8.13261 16.9473 8.25979 16.8536 8.35355C16.7598 8.44732 16.6326 8.5 16.5 8.5H12C11.8674 8.5 11.7402 8.44732 11.6464 8.35355C11.5527 8.25979 11.5 8.13261 11.5 8C11.5 7.86739 11.5527 7.74021 11.6464 7.64645C11.7402 7.55268 11.8674 7.5 12 7.5H16.5C16.6326 7.5 16.7598 7.55268 16.8536 7.64645C16.9473 7.74021 17 7.86739 17 8ZM10.5 14C10.5 14.1326 10.4473 14.2598 10.3536 14.3536C10.2598 14.4473 10.1326 14.5 10 14.5H8C7.86739 14.5 7.74021 14.4473 7.64645 14.3536C7.55268 14.2598 7.5 14.1326 7.5 14C7.5 13.8674 7.55268 13.7402 7.64645 13.6464C7.74021 13.5527 7.86739 13.5 8 13.5H10C10.1326 13.5 10.2598 13.5527 10.3536 13.6464C10.4473 13.7402 10.5 13.8674 10.5 14ZM14 17C14 17.1326 13.9473 17.2598 13.8536 17.3536C13.7598 17.4473 13.6326 17.5 13.5 17.5H12C11.8674 17.5 11.7402 17.4473 11.6464 17.3536C11.5527 17.2598 11.5 17.1326 11.5 17C11.5 16.8674 11.5527 16.7402 11.6464 16.6464C11.7402 16.5527 11.8674 16.5 12 16.5H13.5C13.6326 16.5 13.7598 16.5527 13.8536 16.6464C13.9473 16.7402 14 16.8674 14 17ZM12 20.5C11.8674 20.5 11.7402 20.4473 11.6464 20.3536C11.5527 20.2598 11.5 20.1326 11.5 20C11.5 19.8674 11.5527 19.7402 11.6464 19.6464C11.7402 19.5527 11.8674 19.5 12 19.5H12.5C12.6326 19.5 12.7598 19.5527 12.8536 19.6464C12.9473 19.7402 13 19.8674 13 20C13 20.1326 12.9473 20.2598 12.8536 20.3536C12.7598 20.4473 12.6326 20.5 12.5 20.5H12ZM10.5 17C10.5 17.1326 10.4473 17.2598 10.3536 17.3536C10.2598 17.4473 10.1326 17.5 10 17.5H8C7.86739 17.5 7.74021 17.4473 7.64645 17.3536C7.55268 17.2598 7.5 17.1326 7.5 17C7.5 16.8674 7.55268 16.7402 7.64645 16.6464C7.74021 16.5527 7.86739 16.5 8 16.5H10C10.1326 16.5 10.2598 16.5527 10.3536 16.6464C10.4473 16.7402 10.5 16.8674 10.5 17ZM10.5 20C10.5 20.1326 10.4473 20.2598 10.3536 20.3536C10.2598 20.4473 10.1326 20.5 10 20.5H8C7.86739 20.5 7.74021 20.4473 7.64645 20.3536C7.55268 20.2598 7.5 20.1326 7.5 20C7.5 19.8674 7.55268 19.7402 7.64645 19.6464C7.74021 19.5527 7.86739 19.5 8 19.5H10C10.1326 19.5 10.2598 19.5527 10.3536 19.6464C10.4473 19.7402 10.5 19.8674 10.5 20ZM10.5 5C10.5 5.13261 10.4473 5.25979 10.3536 5.35355C10.2598 5.44732 10.1326 5.5 10 5.5H8C7.86739 5.5 7.74021 5.44732 7.64645 5.35355C7.55268 5.25979 7.5 5.13261 7.5 5C7.5 4.86739 7.55268 4.74021 7.64645 4.64645C7.74021 4.55268 7.86739 4.5 8 4.5H10C10.1326 4.5 10.2598 4.55268 10.3536 4.64645C10.4473 4.74021 10.5 4.86739 10.5 5ZM10.5 8C10.5 8.13261 10.4473 8.25979 10.3536 8.35355C10.2598 8.44732 10.1326 8.5 10 8.5H8C7.86739 8.5 7.74021 8.44732 7.64645 8.35355C7.55268 8.25979 7.5 8.13261 7.5 8C7.5 7.86739 7.55268 7.74021 7.64645 7.64645C7.74021 7.55268 7.86739 7.5 8 7.5H10C10.1326 7.5 10.2598 7.55268 10.3536 7.64645C10.4473 7.74021 10.5 7.86739 10.5 8ZM10.5 11C10.5 11.1326 10.4473 11.2598 10.3536 11.3536C10.2598 11.4473 10.1326 11.5 10 11.5H8C7.86739 11.5 7.74021 11.4473 7.64645 11.3536C7.55268 11.2598 7.5 11.1326 7.5 11C7.5 10.8674 7.55268 10.7402 7.64645 10.6464C7.74021 10.5527 7.86739 10.5 8 10.5H10C10.1326 10.5 10.2598 10.5527 10.3536 10.6464C10.4473 10.7402 10.5 10.8674 10.5 11ZM22.3872 4.68335L26.8872 10.1833C26.947 10.2567 26.9848 10.3454 26.9963 10.4394C27.0077 10.5333 26.9922 10.6285 26.9517 10.714C26.9111 10.7995 26.8472 10.8718 26.7672 10.9224C26.6873 10.973 26.5946 10.9999 26.5 11H24.5V12.5C24.5 12.6326 24.4473 12.7598 24.3536 12.8536C24.2598 12.9473 24.1326 13 24 13C23.8674 13 23.7402 12.9473 23.6464 12.8536C23.5527 12.7598 23.5 12.6326 23.5 12.5V10.5C23.5 10.3674 23.5527 10.2402 23.6464 10.1464C23.7402 10.0527 23.8674 10 24 10H25.445L22 5.78955L18.555 10H20C20.1326 10 20.2598 10.0527 20.3536 10.1464C20.4473 10.2402 20.5 10.3674 20.5 10.5V12.5C20.5 12.6326 20.4473 12.7598 20.3536 12.8536C20.2598 12.9473 20.1326 13 20 13C19.8674 13 19.7402 12.9473 19.6464 12.8536C19.5527 12.7598 19.5 12.6326 19.5 12.5V11H17.5C17.4054 10.9999 17.3127 10.973 17.2328 10.9224C17.1528 10.8718 17.0889 10.7995 17.0483 10.714C17.0078 10.6285 16.9923 10.5333 17.0037 10.4394C17.0152 10.3454 17.053 10.2567 17.1128 10.1833L21.6128 4.68335C21.6614 4.62865 21.721 4.58486 21.7878 4.55488C21.8545 4.5249 21.9268 4.50939 22 4.50939C22.0732 4.50939 22.1455 4.5249 22.2122 4.55488C22.279 4.58486 22.3386 4.62865 22.3872 4.68335ZM22 14C20.4177 14 18.871 14.4692 17.5554 15.3482C16.2398 16.2273 15.2145 17.4767 14.609 18.9385C14.0035 20.4003 13.845 22.0089 14.1537 23.5607C14.4624 25.1126 15.2243 26.538 16.3431 27.6569C17.462 28.7757 18.8874 29.5376 20.4393 29.8463C21.9911 30.155 23.5997 29.9965 25.0615 29.391C26.5233 28.7855 27.7727 27.7602 28.6518 26.4446C29.5308 25.129 30 23.5823 30 22C29.9976 19.879 29.1539 17.8456 27.6542 16.3458C26.1544 14.8461 24.121 14.0024 22 14ZM22 29C20.6155 29 19.2622 28.5895 18.111 27.8203C16.9599 27.0511 16.0627 25.9579 15.5328 24.6788C15.003 23.3997 14.8644 21.9922 15.1345 20.6344C15.4046 19.2765 16.0713 18.0292 17.0503 17.0503C18.0292 16.0713 19.2765 15.4046 20.6344 15.1345C21.9922 14.8644 23.3997 15.003 24.6788 15.5328C25.9579 16.0627 27.0511 16.9599 27.8203 18.111C28.5895 19.2622 29 20.6155 29 22C28.9979 23.8559 28.2597 25.6351 26.9474 26.9474C25.6351 28.2597 23.8559 28.9979 22 29ZM22 16C20.8133 16 19.6533 16.3519 18.6666 17.0112C17.6799 17.6705 16.9108 18.6075 16.4567 19.7039C16.0026 20.8003 15.8838 22.0067 16.1153 23.1705C16.3468 24.3344 16.9182 25.4035 17.7574 26.2426C18.5965 27.0818 19.6656 27.6532 20.8295 27.8847C21.9933 28.1162 23.1997 27.9974 24.2961 27.5433C25.3925 27.0892 26.3295 26.3201 26.9888 25.3334C27.6481 24.3467 28 23.1867 28 22C27.9982 20.4092 27.3655 18.8842 26.2407 17.7593C25.1158 16.6345 23.5908 16.0018 22 16ZM22 27C21.0111 27 20.0444 26.7068 19.2221 26.1573C18.3999 25.6079 17.759 24.827 17.3806 23.9134C17.0022 22.9998 16.9031 21.9945 17.0961 21.0245C17.289 20.0546 17.7652 19.1637 18.4645 18.4645C19.1637 17.7652 20.0546 17.289 21.0245 17.0961C21.9945 16.9031 22.9998 17.0022 23.9134 17.3806C24.827 17.759 25.6079 18.3999 26.1573 19.2221C26.7068 20.0444 27 21.0111 27 22C26.9985 23.3256 26.4712 24.5965 25.5339 25.5339C24.5965 26.4712 23.3256 26.9985 22 27ZM21 20.75C21.0002 20.9488 21.0793 21.1395 21.2199 21.2801C21.3605 21.4207 21.5512 21.4998 21.75 21.5H22.25C22.6924 21.4986 23.1188 21.6651 23.4431 21.966C23.7674 22.2668 23.9654 22.6796 23.9972 23.1208C24.0289 23.562 23.892 23.9989 23.6141 24.343C23.3362 24.6872 22.938 24.9131 22.5 24.975V25.5C22.5 25.6326 22.4473 25.7598 22.3536 25.8536C22.2598 25.9473 22.1326 26 22 26C21.8674 26 21.7402 25.9473 21.6464 25.8536C21.5527 25.7598 21.5 25.6326 21.5 25.5V25H20.5C20.3674 25 20.2402 24.9473 20.1464 24.8536C20.0527 24.7598 20 24.6326 20 24.5C20 24.3674 20.0527 24.2402 20.1464 24.1464C20.2402 24.0527 20.3674 24 20.5 24H22.25C22.4489 24 22.6397 23.921 22.7803 23.7803C22.921 23.6397 23 23.4489 23 23.25C23 23.0511 22.921 22.8603 22.7803 22.7197C22.6397 22.579 22.4489 22.5 22.25 22.5H21.75C21.3079 22.501 20.882 22.3342 20.558 22.0334C20.2341 21.7326 20.0363 21.3201 20.0046 20.8792C19.9729 20.4383 20.1096 20.0018 20.3871 19.6577C20.6646 19.3136 21.0624 19.0876 21.5 19.0252V18.5C21.5 18.3674 21.5527 18.2402 21.6464 18.1464C21.7402 18.0527 21.8674 18 22 18C22.1326 18 22.2598 18.0527 22.3536 18.1464C22.4473 18.2402 22.5 18.3674 22.5 18.5V19H23.5C23.6326 19 23.7598 19.0527 23.8536 19.1464C23.9473 19.2402 24 19.3674 24 19.5C24 19.6326 23.9473 19.7598 23.8536 19.8536C23.7598 19.9473 23.6326 20 23.5 20H21.75C21.5512 20.0002 21.3605 20.0793 21.2199 20.2199C21.0793 20.3605 21.0002 20.5512 21 20.75Z" fill="#FF80AD"/>
</svg>
