<svg width="28" height="28" viewBox="0 0 28 28" fill="none" xmlns="http://www.w3.org/2000/svg">
<path d="M27.5333 8.4H25.2V6.006C25.2004 5.88203 25.1517 5.76294 25.0647 5.67467L19.544 0.135333C19.455 0.0493753 19.3364 0.000921334 19.2127 0H3.26669C3.14292 0 3.02422 0.0491665 2.9367 0.136683C2.84919 0.2242 2.80002 0.342899 2.80002 0.466667V15.8573L0.560023 15.4093C0.492243 15.3956 0.422253 15.3973 0.355215 15.4143C0.288178 15.4313 0.225803 15.4631 0.17269 15.5073C0.118417 15.5501 0.0746437 15.6047 0.0447168 15.667C0.0147899 15.7293 -0.00049744 15.7976 2.38126e-05 15.8667V22.4C-0.000600164 22.4615 0.0110445 22.5224 0.0342757 22.5793C0.0575069 22.6362 0.0918577 22.6879 0.135317 22.7314C0.178775 22.7748 0.230469 22.8092 0.287369 22.8324C0.344269 22.8556 0.405233 22.8673 0.46669 22.8667H2.80002V27.5333C2.80002 27.6571 2.84919 27.7758 2.9367 27.8633C3.02422 27.9508 3.14292 28 3.26669 28H24.7333C24.8571 28 24.9758 27.9508 25.0633 27.8633C25.1508 27.7758 25.2 27.6571 25.2 27.5333V19.6H27.5333C27.6571 19.6 27.7758 19.5508 27.8633 19.4633C27.9508 19.3758 28 19.2571 28 19.1333V8.86667C28 8.7429 27.9508 8.6242 27.8633 8.53668C27.7758 8.44917 27.6571 8.4 27.5333 8.4ZM19.6 1.51667L23.6693 5.6H21.9333C21.3145 5.6 20.721 5.35417 20.2834 4.91658C19.8458 4.479 19.6 3.88551 19.6 3.26667V1.51667ZM3.73335 0.933333H18.6667V3.26667C18.6677 4.13274 19.0121 4.96305 19.6245 5.57546C20.237 6.18786 21.0673 6.53235 21.9333 6.53333H24.2667V8.4H8.86668C8.74292 8.4 8.62422 8.44917 8.5367 8.53668C8.44918 8.6242 8.40002 8.7429 8.40002 8.86667V15.876C8.37847 15.8721 8.35657 15.8706 8.33468 15.8713L5.14735 16.324L3.73335 16.044V0.933333ZM0.933356 21.9333V16.436L5.04469 17.2573C5.09557 17.2659 5.14738 17.2674 5.19869 17.262L8.27868 16.8233L14.2427 21.2427C14.3664 21.3291 14.4672 21.4444 14.5363 21.5786C14.6055 21.7127 14.6408 21.8617 14.6393 22.0127C14.6403 22.2032 14.5816 22.3893 14.4713 22.5447C14.3284 22.7468 14.1113 22.8843 13.8674 22.9271C13.6236 22.97 13.3726 22.9147 13.1693 22.7733L9.42668 20.1507L8.89468 20.916L12.6373 23.5387C12.9957 23.7875 13.4298 23.9032 13.8644 23.8657C14.2991 23.8282 14.7069 23.6399 15.0173 23.3333H19.6C19.847 23.3352 20.0833 23.4341 20.2579 23.6087C20.4326 23.7834 20.5315 24.0197 20.5333 24.2667C20.5326 24.514 20.434 24.7509 20.2592 24.9258C20.0843 25.1007 19.8473 25.1993 19.6 25.2H9.02535L4.95135 22.0313C4.87059 21.9668 4.77003 21.9322 4.66669 21.9333H0.933356ZM24.2667 27.0667H3.73335V22.8667H4.50802L8.58202 26.0353C8.66385 26.0978 8.76371 26.1322 8.86668 26.1333H19.6C20.0951 26.1333 20.5699 25.9367 20.9199 25.5866C21.27 25.2365 21.4667 24.7617 21.4667 24.2667C21.4667 23.7716 21.27 23.2968 20.9199 22.9467C20.5699 22.5967 20.0951 22.4 19.6 22.4H15.526C15.5556 22.273 15.5712 22.1431 15.5727 22.0127C15.5732 21.7142 15.5023 21.42 15.366 21.1545C15.2296 20.889 15.0316 20.66 14.7887 20.4867L13.594 19.6H24.2667V27.0667ZM27.0667 18.6667H12.334L9.33335 16.4453V9.33333H27.0667V18.6667Z" fill="#A3A607"/>
<path d="M10.8378 15.8148C11.2099 15.8148 11.5668 15.9582 11.8299 16.2135C12.093 16.4687 12.2409 16.8149 12.2409 17.1759C12.2409 17.2962 12.2901 17.4116 12.3778 17.4967C12.4655 17.5818 12.5845 17.6296 12.7085 17.6296H23.9329C24.057 17.6296 24.1759 17.5818 24.2636 17.4967C24.3513 17.4116 24.4006 17.2962 24.4006 17.1759C24.4006 16.8149 24.5484 16.4687 24.8116 16.2135C25.0747 15.9582 25.4316 15.8148 25.8037 15.8148C25.9277 15.8148 26.0467 15.767 26.1344 15.6819C26.2221 15.5968 26.2714 15.4814 26.2714 15.3611V12.6389C26.2714 12.5186 26.2221 12.4031 26.1344 12.3181C26.0467 12.233 25.9277 12.1852 25.8037 12.1852C25.4316 12.1852 25.0747 12.0418 24.8116 11.7865C24.5484 11.5313 24.4006 11.1851 24.4006 10.8241C24.4006 10.7037 24.3513 10.5883 24.2636 10.5032C24.1759 10.4182 24.057 10.3704 23.9329 10.3704H12.7085C12.5845 10.3704 12.4655 10.4182 12.3778 10.5032C12.2901 10.5883 12.2409 10.7037 12.2409 10.8241C12.2409 11.1851 12.093 11.5313 11.8299 11.7865C11.5668 12.0418 11.2099 12.1852 10.8378 12.1852C10.7138 12.1852 10.5948 12.233 10.5071 12.3181C10.4194 12.4031 10.3701 12.5186 10.3701 12.6389V15.3611C10.3701 15.4814 10.4194 15.5968 10.5071 15.6819C10.5948 15.767 10.7138 15.8148 10.8378 15.8148ZM15.5146 14C15.5146 13.4616 15.6792 12.9353 15.9875 12.4876C16.2959 12.0399 16.7341 11.691 17.2469 11.485C17.7596 11.2789 18.3238 11.225 18.8682 11.3301C19.4125 11.4351 19.9125 11.6944 20.3049 12.0751C20.6974 12.4558 20.9646 12.9409 21.0729 13.4689C21.1812 13.997 21.1256 14.5443 20.9132 15.0417C20.7008 15.5392 20.3412 15.9643 19.8797 16.2634C19.4183 16.5626 18.8757 16.7222 18.3207 16.7222C17.5767 16.7215 16.8634 16.4345 16.3373 15.9241C15.8113 15.4137 15.5154 14.7217 15.5146 14ZM23.512 11.2778C23.6044 11.7134 23.8264 12.1132 24.1506 12.4277C24.4748 12.7422 24.8869 12.9576 25.336 13.0472V14.9528C24.8869 15.0424 24.4748 15.2578 24.1506 15.5723C23.8264 15.8868 23.6044 16.2866 23.512 16.7222H20.7873C21.1877 16.383 21.5086 15.9645 21.7285 15.495C21.9484 15.0255 22.0622 14.5157 22.0622 14C22.0622 13.4843 21.9484 12.9745 21.7285 12.505C21.5086 12.0354 21.1877 11.617 20.7873 11.2778H23.512ZM11.3055 13.0472C11.7545 12.9576 12.1667 12.7422 12.4909 12.4277C12.815 12.1132 13.0371 11.7134 13.1294 11.2778H15.8546C15.4542 11.617 15.1333 12.0354 14.9134 12.505C14.6935 12.9745 14.5797 13.4843 14.5797 14C14.5797 14.5157 14.6935 15.0255 14.9134 15.495C15.1333 15.9645 15.4542 16.383 15.8546 16.7222H13.1294C13.0371 16.2866 12.815 15.8868 12.4909 15.5723C12.1667 15.2578 11.7545 15.0424 11.3055 14.9528V13.0472Z" fill="#A3A607"/>
<path d="M17.2835 4.83948H7.9502V5.53084H17.2835V4.83948Z" fill="#A3A607"/>
<path d="M6.91394 4.83948H5.18555V5.53084H6.91394V4.83948Z" fill="#A3A607"/>
<path d="M17.2835 2.41968H7.9502V3.11104H17.2835V2.41968Z" fill="#A3A607"/>
<path d="M6.91394 2.41968H5.18555V3.11104H6.91394V2.41968Z" fill="#A3A607"/>
</svg>
