<svg width="59" height="59" viewBox="0 0 59 59" fill="none" xmlns="http://www.w3.org/2000/svg">
<path d="M10.7338 40.9835C10.6362 40.9835 10.5191 40.964 10.4215 40.9249C10.0312 40.8078 9.75798 40.437 9.75798 40.0077V33.1771H4.87899C2.18579 33.1771 0 30.9913 0 28.2981V4.87899C0 2.18579 2.18579 0 4.87899 0H32.2013C34.8945 0 37.0803 2.18579 37.0803 4.87899V18.5402C37.0803 19.0866 36.651 19.516 36.1045 19.516C35.5581 19.516 35.1287 19.0866 35.1287 18.5402V4.87899C35.1287 3.25916 33.8211 1.9516 32.2013 1.9516H4.87899C3.25916 1.9516 1.9516 3.25916 1.9516 4.87899V28.2981C1.9516 29.918 3.25916 31.2255 4.87899 31.2255H10.7338C11.2802 31.2255 11.7096 31.6549 11.7096 32.2013V37.0803L15.8079 31.6158C15.9836 31.3621 16.2763 31.2255 16.5886 31.2255H22.4433C22.9898 31.2255 23.4191 31.6549 23.4191 32.2013C23.4191 32.7478 22.9898 33.1771 22.4433 33.1771H17.0765L11.5144 40.5932C11.3193 40.8469 11.0265 40.9835 10.7338 40.9835Z" fill="black"/>
<path d="M47.8142 58.5478C47.5215 58.5478 47.2287 58.4111 47.0335 58.1574L41.4715 50.7414H26.3466C23.6534 50.7414 21.4677 48.5556 21.4677 45.8624V32.2012C21.4677 31.6548 21.897 31.2254 22.4435 31.2254C22.9899 31.2254 23.4192 31.6548 23.4192 32.2012V45.8624C23.4192 47.4822 24.7268 48.7898 26.3466 48.7898H41.9594C42.2717 48.7898 42.5644 48.9264 42.74 49.1801L46.8384 54.6446V49.7656C46.8384 49.2191 47.2677 48.7898 47.8142 48.7898H53.669C55.2888 48.7898 56.5964 47.4822 56.5964 45.8624V22.4432C56.5964 20.8234 55.2888 19.5159 53.669 19.5159H30.2498C29.7034 19.5159 29.274 19.0865 29.274 18.5401C29.274 17.9936 29.7034 17.5643 30.2498 17.5643H53.669C56.3622 17.5643 58.548 19.75 58.548 22.4432V45.8624C58.548 48.5556 56.3622 50.7414 53.669 50.7414H48.79V57.572C48.79 58.0013 48.5168 58.3721 48.1264 58.4892C48.0289 58.5282 47.9118 58.5478 47.8142 58.5478ZM16.6862 46.8382C16.1398 46.8382 15.7104 46.4088 15.7104 45.8624V45.6672C15.7104 45.1208 16.1398 44.6914 16.6862 44.6914C17.2327 44.6914 17.662 45.1208 17.662 45.6672V45.8624C17.662 46.4088 17.2327 46.8382 16.6862 46.8382ZM16.6862 50.7414C16.1398 50.7414 15.7104 50.312 15.7104 49.7656V49.5704C15.7104 49.024 16.1398 48.5946 16.6862 48.5946C17.2327 48.5946 17.662 49.024 17.662 49.5704V49.7656C17.662 50.312 17.2327 50.7414 16.6862 50.7414ZM16.6862 54.6446C16.1398 54.6446 15.7104 54.2152 15.7104 53.6688V53.4736C15.7104 52.9272 16.1398 52.4978 16.6862 52.4978C17.2327 52.4978 17.662 52.9272 17.662 53.4736V53.6688C17.662 54.2152 17.2327 54.6446 16.6862 54.6446ZM53.8641 13.6611H53.669C53.1225 13.6611 52.6932 13.2317 52.6932 12.6853C52.6932 12.1388 53.1225 11.7095 53.669 11.7095C54.2154 11.7095 54.7424 12.1388 54.7424 12.6853C54.7424 13.2317 54.4106 13.6611 53.8641 13.6611ZM49.9609 13.6611H49.7658C49.2193 13.6611 48.79 13.2317 48.79 12.6853C48.79 12.1388 49.2193 11.7095 49.7658 11.7095C50.3122 11.7095 50.8392 12.1388 50.8392 12.6853C50.8392 13.2317 50.5074 13.6611 49.9609 13.6611ZM46.0578 13.6611H45.8626C45.3161 13.6611 44.8868 13.2317 44.8868 12.6853C44.8868 12.1388 45.3161 11.7095 45.8626 11.7095C46.409 11.7095 46.936 12.1388 46.936 12.6853C46.936 13.2317 46.6042 13.6611 46.0578 13.6611Z" fill="black"/>
<path d="M47.8138 42.9348C47.7553 42.9348 47.6967 42.9348 47.6382 42.9153C44.379 42.3103 38.2315 37.6069 35.4797 32.6694C35.226 32.201 35.3822 31.596 35.8505 31.3423C36.3189 31.0886 36.9239 31.2447 37.1776 31.7131C39.5781 35.9871 45.2182 40.4562 47.9895 40.9832C48.5164 41.0808 48.8677 41.5882 48.7701 42.1151C48.692 42.603 48.2822 42.9348 47.8138 42.9348Z" fill="black"/>
<path d="M32.201 42.9348C31.7521 42.9348 31.3423 42.6225 31.2447 42.1737C31.1276 41.6467 31.4594 41.1198 31.9863 41.0222C36.1432 40.1245 43.9106 33.2354 43.9106 28.3174C43.9106 27.7709 44.3399 27.3416 44.8863 27.3416C45.4328 27.3416 45.8621 27.7709 45.8621 28.3174C45.8621 34.3478 37.4703 41.8419 32.4157 42.9348C32.3376 42.9348 32.2595 42.9348 32.201 42.9348Z" fill="black"/>
<path d="M48.7897 29.2739H31.2253C30.6789 29.2739 30.2495 28.8445 30.2495 28.2981C30.2495 27.7516 30.6789 27.3223 31.2253 27.3223H48.7897C49.3361 27.3223 49.7655 27.7516 49.7655 28.2981C49.7655 28.8445 49.3361 29.2739 48.7897 29.2739Z" fill="black"/>
<path d="M40.0075 29.274C39.4611 29.274 39.0317 28.8447 39.0317 28.2982V25.3708C39.0317 24.8244 39.4611 24.395 40.0075 24.395C40.554 24.395 40.9833 24.8244 40.9833 25.3708V28.2982C40.9833 28.8447 40.554 29.274 40.0075 29.274Z" fill="black"/>
<path d="M24.3949 25.3707C23.9461 25.3707 23.5362 25.0584 23.4386 24.6096L19.9648 8.95777C19.8087 8.27471 19.2232 7.80633 18.5401 7.80633C17.8571 7.80633 17.2716 8.27471 17.1155 8.93826L13.6416 24.59C13.5245 25.117 13.0171 25.4487 12.4707 25.3317C11.9437 25.2146 11.612 24.6876 11.7291 24.1607L15.2029 8.50891C15.5542 6.94763 16.9398 5.85474 18.5401 5.85474C20.1404 5.85474 21.5261 6.94763 21.8774 8.52842L25.3512 24.1802C25.4683 24.7071 25.1365 25.2341 24.6096 25.3512C24.5315 25.3707 24.473 25.3707 24.3949 25.3707Z" fill="black"/>
<path d="M23.4193 21.4675H13.6613C13.1149 21.4675 12.6855 21.0381 12.6855 20.4917C12.6855 19.9452 13.1149 19.5159 13.6613 19.5159H23.4193C23.9658 19.5159 24.3951 19.9452 24.3951 20.4917C24.3951 21.0381 23.9658 21.4675 23.4193 21.4675Z" fill="black"/>
</svg>
