<svg width="32" height="29" viewBox="0 0 32 29" fill="none" xmlns="http://www.w3.org/2000/svg">
<path d="M29.3333 0H9.06667C8.92522 0 8.78956 0.0561904 8.68954 0.15621C8.58952 0.256229 8.53333 0.391885 8.53333 0.533333C8.53333 0.674782 8.58952 0.810437 8.68954 0.910457C8.78956 1.01048 8.92522 1.06667 9.06667 1.06667H29.3333C29.7575 1.06714 30.1642 1.23587 30.4642 1.53582C30.7641 1.83578 30.9329 2.24247 30.9333 2.66667V19.7333C30.9329 20.1575 30.7641 20.5642 30.4642 20.8642C30.1642 21.1641 29.7575 21.3329 29.3333 21.3333H2.66667C2.24247 21.3329 1.83578 21.1641 1.53582 20.8642C1.23587 20.5642 1.06714 20.1575 1.06667 19.7333V2.66667C1.06714 2.24247 1.23587 1.83578 1.53582 1.53582C1.83578 1.23587 2.24247 1.06714 2.66667 1.06667H6.93333C7.07478 1.06667 7.21044 1.01048 7.31046 0.910457C7.41048 0.810437 7.46667 0.674782 7.46667 0.533333C7.46667 0.391885 7.41048 0.256229 7.31046 0.15621C7.21044 0.0561904 7.07478 0 6.93333 0H2.66667C1.95968 0.000829252 1.28188 0.282047 0.781964 0.781964C0.282047 1.28188 0.000829252 1.95968 0 2.66667V19.7333C0.000829252 20.4403 0.282047 21.1181 0.781964 21.618C1.28188 22.118 1.95968 22.3992 2.66667 22.4H12.1172L11.3172 25.6H6.4C5.9758 25.6005 5.56911 25.7692 5.26916 26.0692C4.9692 26.3691 4.80048 26.7758 4.8 27.2V28.2667C4.8 28.4081 4.85619 28.5438 4.95621 28.6438C5.05623 28.7438 5.19188 28.8 5.33333 28.8H26.6667C26.8081 28.8 26.9438 28.7438 27.0438 28.6438C27.1438 28.5438 27.2 28.4081 27.2 28.2667V27.2C27.1995 26.7758 27.0308 26.3691 26.7308 26.0692C26.4309 25.7692 26.0242 25.6005 25.6 25.6H20.6828L19.8828 22.4H29.3333C30.0403 22.3992 30.7181 22.118 31.218 21.618C31.718 21.1181 31.9992 20.4403 32 19.7333V2.66667C31.9992 1.95968 31.718 1.28188 31.218 0.781964C30.7181 0.282047 30.0403 0.000829252 29.3333 0ZM26.1333 27.2V27.7333H5.86667V27.2C5.86675 27.0586 5.92297 26.923 6.02297 26.823C6.12297 26.723 6.25858 26.6668 6.4 26.6667H25.6C25.7414 26.6668 25.877 26.723 25.977 26.823C26.077 26.923 26.1332 27.0586 26.1333 27.2ZM19.5833 25.6H12.4167L13.2167 22.4H18.7833L19.5833 25.6Z" fill="#177F00"/>
<path d="M7.46621 14.4001C7.14976 14.4001 6.84042 14.494 6.5773 14.6698C6.31418 14.8456 6.1091 15.0955 5.988 15.3879C5.8669 15.6802 5.83522 16.0019 5.89696 16.3123C5.95869 16.6227 6.11108 16.9078 6.33484 17.1315C6.5586 17.3553 6.8437 17.5077 7.15407 17.5694C7.46444 17.6311 7.78614 17.5995 8.07851 17.4784C8.37087 17.3573 8.62075 17.1522 8.79656 16.8891C8.97237 16.6259 9.06621 16.3166 9.06621 16.0001C9.06574 15.5759 8.89701 15.1693 8.59706 14.8693C8.2971 14.5693 7.89041 14.4006 7.46621 14.4001ZM7.46621 16.5335C7.36073 16.5335 7.25761 16.5022 7.16991 16.4436C7.0822 16.385 7.01384 16.3017 6.97348 16.2042C6.93311 16.1068 6.92255 15.9996 6.94313 15.8961C6.96371 15.7926 7.0145 15.6976 7.08909 15.623C7.16368 15.5484 7.25871 15.4976 7.36216 15.4771C7.46562 15.4565 7.57286 15.467 7.67031 15.5074C7.76776 15.5478 7.85106 15.6161 7.90966 15.7038C7.96827 15.7915 7.99954 15.8947 7.99954 16.0001C7.99946 16.1416 7.94324 16.2772 7.84324 16.3772C7.74324 16.4772 7.60763 16.5334 7.46621 16.5335ZM11.7329 14.4001C11.4164 14.4001 11.1071 14.494 10.844 14.6698C10.5808 14.8456 10.3758 15.0955 10.2547 15.3879C10.1336 15.6802 10.1019 16.0019 10.1636 16.3123C10.2254 16.6227 10.3777 16.9078 10.6015 17.1315C10.8253 17.3553 11.1104 17.5077 11.4207 17.5694C11.7311 17.6311 12.0528 17.5995 12.3452 17.4784C12.6375 17.3573 12.8874 17.1522 13.0632 16.8891C13.239 16.6259 13.3329 16.3166 13.3329 16.0001C13.3324 15.5759 13.1637 15.1693 12.8637 14.8693C12.5638 14.5693 12.1571 14.4006 11.7329 14.4001ZM11.7329 16.5335C11.6274 16.5335 11.5243 16.5022 11.4366 16.4436C11.3489 16.385 11.2805 16.3017 11.2401 16.2042C11.1998 16.1068 11.1892 15.9996 11.2098 15.8961C11.2304 15.7926 11.2812 15.6976 11.3558 15.623C11.4303 15.5484 11.5254 15.4976 11.6288 15.4771C11.7323 15.4565 11.8395 15.467 11.937 15.5074C12.0344 15.5478 12.1177 15.6161 12.1763 15.7038C12.2349 15.7915 12.2662 15.8947 12.2662 16.0001C12.2661 16.1416 12.2099 16.2772 12.1099 16.3772C12.0099 16.4772 11.8743 16.5334 11.7329 16.5335Z" fill="#177F00"/>
<path d="M24.0002 2.1333H21.8669C21.7254 2.1333 21.5898 2.18949 21.4897 2.28951C21.3897 2.38953 21.3335 2.52519 21.3335 2.66663V4.53997C21.1741 4.59638 21.018 4.66157 20.8658 4.73523L19.5398 3.40923C19.4398 3.30923 19.3041 3.25305 19.1627 3.25305C19.0213 3.25305 18.8856 3.30923 18.7856 3.40923L17.395 4.79997H4.8002C4.376 4.80044 3.96931 4.96917 3.66935 5.26912C3.3694 5.56908 3.20067 5.97577 3.2002 6.39997V18.1333C3.20067 18.5575 3.3694 18.9642 3.66935 19.2641C3.96931 19.5641 4.376 19.7328 4.8002 19.7333H21.8669C22.2911 19.7328 22.6978 19.5641 22.9977 19.2641C23.2977 18.9642 23.4664 18.5575 23.4669 18.1333V16H24.0002C24.1416 16 24.2773 15.9438 24.3773 15.8438C24.4773 15.7437 24.5335 15.6081 24.5335 15.4666V13.5937C24.6932 13.5374 24.8497 13.4724 25.0023 13.3989L26.3273 14.7239C26.4273 14.8239 26.5629 14.8801 26.7044 14.8801C26.8458 14.8801 26.9814 14.8239 27.0815 14.7239L28.5908 13.2146C28.6908 13.1146 28.747 12.9789 28.747 12.8375C28.747 12.696 28.6908 12.5604 28.5908 12.4604L27.2658 11.1354C27.3393 10.9828 27.4043 10.8263 27.4606 10.6666H29.3335C29.475 10.6666 29.6106 10.6104 29.7107 10.5104C29.8107 10.4104 29.8669 10.2747 29.8669 10.1333V7.99997C29.8669 7.85852 29.8107 7.72286 29.7107 7.62284C29.6106 7.52282 29.475 7.46663 29.3335 7.46663H27.4606C27.4043 7.30694 27.3393 7.15046 27.2658 6.9979L28.5908 5.6729C28.6908 5.57288 28.747 5.43724 28.747 5.2958C28.747 5.15436 28.6908 5.01872 28.5908 4.9187L27.0815 3.40937C26.9814 3.30936 26.8458 3.25318 26.7044 3.25318C26.5629 3.25318 26.4273 3.30936 26.3273 3.40937L25.0023 4.73437C24.8497 4.66091 24.6932 4.59588 24.5335 4.53957V2.66663C24.5335 2.52519 24.4773 2.38953 24.3773 2.28951C24.2773 2.18949 24.1416 2.1333 24.0002 2.1333ZM4.8002 5.86663H17.47L18.6013 6.9979C18.5278 7.15046 18.4628 7.30694 18.4065 7.46663H16.5335C16.3921 7.46663 16.2564 7.52282 16.1564 7.62284C16.0564 7.72286 16.0002 7.85852 16.0002 7.99997V8.5333H4.26686V6.39997C4.26695 6.25855 4.32317 6.12294 4.42317 6.02294C4.52317 5.92294 4.65877 5.86672 4.8002 5.86663ZM18.0033 11.7333H4.26686V9.59997H16.0002V10.1333C16.0002 10.2747 16.0564 10.4104 16.1564 10.5104C16.2564 10.6104 16.3921 10.6666 16.5335 10.6666H18.4065C18.4628 10.8263 18.5278 10.9828 18.6013 11.1354L18.0033 11.7333ZM22.4002 18.1333C22.4001 18.2747 22.3439 18.4103 22.2439 18.5103C22.1439 18.6103 22.0083 18.6665 21.8669 18.6666H4.8002C4.65877 18.6665 4.52317 18.6103 4.42317 18.5103C4.32317 18.4103 4.26695 18.2747 4.26686 18.1333V12.8H17.1273C17.1206 12.8757 17.1305 12.9521 17.1562 13.0236C17.1819 13.0952 17.2229 13.1604 17.2763 13.2146L18.7856 14.7239C18.8856 14.8239 19.0213 14.8801 19.1627 14.8801C19.3041 14.8801 19.4398 14.8239 19.5398 14.7239L20.8648 13.3989C21.0174 13.4724 21.1738 13.5374 21.3335 13.5937V15.4666C21.3335 15.6081 21.3897 15.7437 21.4897 15.8438C21.5898 15.9438 21.7254 16 21.8669 16H22.4002V18.1333ZM24.8231 5.8489C24.9252 5.91043 25.0449 5.93602 25.1632 5.92158C25.2814 5.90714 25.3915 5.85351 25.4757 5.76923L26.7043 4.54057L27.4596 5.29583L26.2309 6.52443C26.1467 6.60868 26.093 6.71872 26.0786 6.837C26.0641 6.95528 26.0897 7.07499 26.1513 7.17703C26.3296 7.47536 26.4641 7.79777 26.5507 8.13437C26.5805 8.24858 26.6474 8.34968 26.7408 8.42186C26.8341 8.49405 26.9488 8.53324 27.0669 8.5333H28.8002V9.59997H27.0669C26.9488 9.60003 26.8341 9.63922 26.7408 9.71141C26.6474 9.78359 26.5805 9.88469 26.5507 9.9989C26.4641 10.3355 26.3296 10.6579 26.1513 10.9562C26.0897 11.0583 26.0641 11.178 26.0786 11.2963C26.093 11.4146 26.1467 11.5246 26.2309 11.6088L27.4596 12.8374L26.7043 13.5927L25.4757 12.364C25.3916 12.2796 25.2815 12.2259 25.1632 12.2114C25.0449 12.1969 24.9252 12.2225 24.8231 12.284C24.5248 12.4624 24.2024 12.5969 23.8658 12.6835C23.7515 12.7133 23.6504 12.7802 23.5782 12.8737C23.506 12.9671 23.4669 13.0819 23.4669 13.2V14.9333H22.4002V13.2C22.4001 13.0819 22.3609 12.9673 22.2888 12.8739C22.2166 12.7805 22.1155 12.7136 22.0013 12.6838C21.6647 12.5972 21.3423 12.4627 21.0439 12.2844C20.9418 12.2229 20.8221 12.1973 20.7038 12.2118C20.5856 12.2263 20.4755 12.28 20.3913 12.3644L19.1627 13.593L18.4075 12.8378L19.6361 11.6092C19.7204 11.5249 19.774 11.4149 19.7885 11.2966C19.8029 11.1783 19.7773 11.0586 19.7158 10.9566C19.5375 10.6582 19.4029 10.3358 19.3163 9.99923C19.2866 9.88497 19.2198 9.78379 19.1264 9.71154C19.033 9.63929 18.9183 9.60005 18.8002 9.59997H17.0669V8.5333H18.8002C18.9182 8.53324 19.0329 8.49405 19.1263 8.42186C19.2197 8.34968 19.2865 8.24858 19.3163 8.13437C19.4029 7.79777 19.5375 7.47536 19.7158 7.17703C19.7773 7.07499 19.8029 6.95528 19.7885 6.837C19.774 6.71872 19.7204 6.60868 19.6361 6.52443L18.4075 5.29583L19.1627 4.54057L20.3913 5.76923C20.4744 5.8521 20.5825 5.90531 20.6988 5.92064C20.8152 5.93598 20.9333 5.9126 21.0351 5.8541C21.0372 5.85257 21.0856 5.82343 21.0884 5.82183C21.1056 5.81458 21.1223 5.80623 21.1384 5.79683C21.4098 5.64384 21.7002 5.52705 22.0019 5.44943C22.116 5.41956 22.217 5.35269 22.2891 5.2593C22.3612 5.16591 22.4002 5.05126 22.4002 4.9333V3.19997H23.4669V4.9333C23.4669 5.05133 23.5061 5.16602 23.5783 5.25941C23.6505 5.3528 23.7516 5.41962 23.8658 5.44943C24.2024 5.53604 24.5248 5.67057 24.8231 5.8489Z" fill="#177F00"/>
<path d="M20.7998 9.06668C20.7998 9.48862 20.9249 9.90107 21.1593 10.2519C21.3937 10.6027 21.7269 10.8762 22.1167 11.0376C22.5066 11.1991 22.9355 11.2413 23.3493 11.159C23.7632 11.0767 24.1433 10.8735 24.4416 10.5752C24.74 10.2768 24.9432 9.8967 25.0255 9.48288C25.1078 9.06905 25.0655 8.64011 24.9041 8.25029C24.7426 7.86048 24.4692 7.52729 24.1184 7.29288C23.7675 7.05847 23.3551 6.93335 22.9331 6.93335C22.3675 6.93391 21.8252 7.15886 21.4253 7.55881C21.0253 7.95877 20.8004 8.50106 20.7998 9.06668ZM23.9998 9.06668C23.9998 9.27765 23.9372 9.48388 23.82 9.65929C23.7028 9.8347 23.5362 9.97142 23.3413 10.0522C23.1464 10.1329 22.932 10.154 22.725 10.1129C22.5181 10.0717 22.3281 9.97011 22.1789 9.82093C22.0297 9.67175 21.9281 9.48169 21.887 9.27478C21.8458 9.06787 21.8669 8.85339 21.9477 8.65849C22.0284 8.46358 22.1651 8.29699 22.3405 8.17978C22.5159 8.06258 22.7222 8.00002 22.9331 8.00002C23.2159 8.00039 23.487 8.11289 23.687 8.31284C23.8869 8.5128 23.9994 8.7839 23.9998 9.06668Z" fill="#177F00"/>
</svg>
