<svg width="25" height="33" viewBox="0 0 25 33" fill="none" xmlns="http://www.w3.org/2000/svg">
<path d="M20.4802 5.69976V15.6422C20.4802 15.8639 20.3003 16.0438 20.0787 16.0438C19.857 16.0438 19.6771 15.8639 19.6771 15.6422V5.69976C19.6771 5.05729 19.1567 4.53685 18.5142 4.53685H17.4541C17.4606 4.5433 17.4702 4.55291 17.4766 4.55935L18.2026 5.28218C18.2701 5.35286 18.3182 5.47172 18.3182 5.56807V16.1113C18.3182 16.3329 18.1384 16.5128 17.9167 16.5128C17.6951 16.5128 17.5152 16.3329 17.5152 16.1113V5.96959H14.4409C13.8369 5.96959 13.3486 5.4781 13.3486 4.87736V1.80305H2.68013C2.19503 1.80305 1.80317 2.19497 1.80317 2.68001V20.4127C1.80317 20.8946 2.19509 21.2896 2.68013 21.2896H14.1646C14.3863 21.2896 14.5661 21.4695 14.5661 21.6912C14.5661 21.9128 14.3863 22.0927 14.1646 22.0927H3.96506V22.854C3.96506 23.4965 4.48867 24.0201 5.1312 24.0201H12.3688C12.5905 24.0201 12.7704 24.2 12.7704 24.4217C12.7704 24.6433 12.5904 24.8232 12.3688 24.8232H5.1312C4.04542 24.8232 3.16195 23.9398 3.16195 22.8539V22.0926H2.68007C1.75488 22.0926 1 21.3377 1 20.4125V2.68007C1 1.75165 1.75494 1 2.68007 1H13.7501C13.8336 1 13.9621 1.04495 14.0328 1.11563C14.9515 2.03438 14.8391 1.92197 15.5137 2.59333L16.6542 3.73373H18.5142C19.5968 3.73373 20.4802 4.61398 20.4802 5.69976Z" fill="#B27A48" stroke="#B27A48" stroke-width="0.1"/>
<path d="M8.8062 4.1321C8.8062 4.81313 8.25364 5.3657 7.57583 5.3657H3.90078C3.22297 5.3657 2.67041 4.8132 2.67041 4.1321C2.67041 3.45423 3.22291 2.90173 3.90078 2.90173H7.57583C8.25364 2.90173 8.8062 3.45423 8.8062 4.1321ZM16.0398 7.4969H3.27741C3.05563 7.4969 2.87589 7.67664 2.87589 7.89842C2.87589 8.1202 3.05563 8.29995 3.27741 8.29995H16.0398C16.2616 8.29995 16.4413 8.1202 16.4413 7.89842C16.4413 7.67664 16.2616 7.4969 16.0398 7.4969ZM3.27741 18.9961H11.8212C12.043 18.9961 12.2228 18.8163 12.2228 18.5945C12.2228 18.3727 12.043 18.193 11.8212 18.193H3.27741C3.05563 18.193 2.87589 18.3727 2.87589 18.5945C2.87589 18.8163 3.05563 18.9961 3.27741 18.9961ZM3.27741 10.8172H5.73834C5.96012 10.8172 6.13986 10.6375 6.13986 10.4157C6.13986 10.1939 5.96012 10.0142 5.73834 10.0142H3.27741C3.05563 10.0142 2.87589 10.1939 2.87589 10.4157C2.87589 10.6375 3.05563 10.8172 3.27741 10.8172ZM16.0398 10.0141H7.60274C7.38096 10.0141 7.20121 10.1939 7.20121 10.4156C7.20121 10.6374 7.38096 10.8172 7.60274 10.8172H16.0398C16.2616 10.8172 16.4413 10.6374 16.4413 10.4156C16.4413 10.1939 16.2616 10.0141 16.0398 10.0141ZM3.27741 15.4668C3.05563 15.4668 2.87589 15.6465 2.87589 15.8683C2.87589 16.0901 3.05563 16.2698 3.27741 16.2698H5.73834C5.96012 16.2698 6.13986 16.0901 6.13986 15.8683C6.13986 15.6465 5.96012 15.4668 5.73834 15.4668H3.27741ZM16.4413 15.8684C16.4413 15.6466 16.2616 15.4668 16.0398 15.4668H7.60274C7.38096 15.4668 7.20121 15.6466 7.20121 15.8684C7.20121 16.0901 7.38096 16.2699 7.60274 16.2699H16.0398C16.2616 16.2699 16.4413 16.0901 16.4413 15.8684ZM16.0398 12.7403H13.5789C13.3571 12.7403 13.1774 12.92 13.1774 13.1418C13.1774 13.3636 13.3571 13.5433 13.5789 13.5433H16.0398C16.2616 13.5433 16.4413 13.3636 16.4413 13.1418C16.4413 12.92 16.2616 12.7403 16.0398 12.7403ZM12.116 13.1419C12.116 12.9201 11.9363 12.7404 11.7145 12.7404H3.27741C3.05563 12.7404 2.87589 12.9201 2.87589 13.1419C2.87589 13.3637 3.05563 13.5434 3.27741 13.5434H11.7145C11.9363 13.5434 12.116 13.3637 12.116 13.1419ZM22.2663 22.5361L21.3122 21.6816C21.4825 21.4985 21.5917 21.2511 21.5917 20.9813C21.5917 20.7404 21.505 20.5187 21.3637 20.3421C21.505 20.1654 21.5917 19.9437 21.5917 19.7028C21.5917 19.1824 21.2063 18.752 20.7051 18.678L21.1484 17.7336C21.2223 17.5826 21.2223 17.4091 21.1484 17.2581C21.0745 17.1072 20.9396 16.9979 20.7758 16.9594C18.8194 16.5 18.9511 17.8171 16.8983 17.1586C16.6895 17.0911 16.4583 17.1553 16.3137 17.3192C16.1691 17.4862 16.1338 17.7207 16.2301 17.9199L16.5867 18.678C16.0856 18.752 15.7001 19.1824 15.7001 19.7028C15.7001 19.9438 15.7868 20.1654 15.925 20.3421C15.7868 20.5188 15.7001 20.7404 15.7001 20.9813C15.7001 21.2511 15.8061 21.4985 15.9764 21.6816L15.0255 22.5361C13.3101 24.0749 12.7575 26.3653 13.5799 28.5145C14.4023 30.6637 16.3426 32 18.6459 32C20.946 32 22.8895 30.6636 23.7119 28.5145C24.5343 26.3654 23.9785 24.0749 22.2663 22.5361ZM16.7409 19.465H20.5509C20.6794 19.465 20.7886 19.5711 20.7886 19.7028C20.7886 19.8344 20.6794 19.9405 20.5509 19.9405H16.7409C16.6092 19.9405 16.5032 19.8344 16.5032 19.7028C16.5032 19.5711 16.6092 19.465 16.7409 19.465ZM16.7409 20.7436H20.5509C20.6794 20.7436 20.7886 20.8496 20.7886 20.9813C20.7886 21.113 20.6794 21.219 20.5509 21.219H16.7409C16.6092 21.219 16.5032 21.113 16.5032 20.9813C16.5032 20.8496 16.6092 20.7436 16.7409 20.7436ZM22.9602 28.2254C22.4108 29.6613 20.9878 31.1969 18.6459 31.1969C16.3008 31.1969 14.8777 29.6613 14.3284 28.2254C13.779 26.7926 13.8144 24.7013 15.5587 23.1336L16.8019 22.0221H20.4898L21.7298 23.1336C23.4742 24.7013 23.5095 26.7926 22.9602 28.2254Z" fill="#B27A48" stroke="#B27A48" stroke-width="0.1"/>
<path d="M18.645 24.7066C19.0604 24.7066 19.3984 25.0448 19.3984 25.4601C19.3984 25.6819 19.5781 25.8617 19.7999 25.8617C20.0217 25.8617 20.2014 25.6819 20.2014 25.4601C20.2014 24.7415 19.7095 24.141 19.0465 23.9626V23.5888C19.0465 23.367 18.8668 23.1873 18.645 23.1873C18.4232 23.1873 18.2435 23.367 18.2435 23.5888V23.9626C17.5804 24.141 17.0884 24.7415 17.0884 25.4601C17.0884 26.3184 17.7867 27.0164 18.645 27.0164C18.652 27.0164 18.6578 27.0128 18.6647 27.0125C19.0707 27.0232 19.3984 27.3554 19.3984 27.7641C19.3984 28.1724 19.0713 28.5042 18.6657 28.5155C18.6585 28.5152 18.6524 28.5114 18.645 28.5114C18.6376 28.5114 18.6315 28.5152 18.6243 28.5155C18.2186 28.5042 17.8914 28.1724 17.8914 27.7641C17.8914 27.5423 17.7117 27.3625 17.4899 27.3625C17.2681 27.3625 17.0884 27.5423 17.0884 27.7641C17.0884 28.4827 17.5804 29.0832 18.2435 29.2616V29.6291C18.2435 29.8509 18.4232 30.0306 18.645 30.0306C18.8668 30.0306 19.0465 29.8509 19.0465 29.6291V29.2616C19.7096 29.0832 20.2014 28.4827 20.2014 27.7641C20.2014 26.9058 19.5033 26.2074 18.6449 26.2074C18.6379 26.2074 18.6322 26.2111 18.6253 26.2114C18.2191 26.2007 17.8914 25.8688 17.8914 25.4601C17.8914 25.0448 18.2295 24.7066 18.645 24.7066Z" fill="#B27A48" stroke="#B27A48" stroke-width="0.1"/>
</svg>
