<svg width="28" height="28" viewBox="0 0 28 28" fill="none" xmlns="http://www.w3.org/2000/svg">
<path d="M25.8135 4.3753H20.5631V4.81283V5.25036H25.8135C26.537 5.25036 27.1257 5.83905 27.1257 6.56295V21.0011H0.875061V6.56295C0.875061 5.83943 1.46375 5.25036 2.18765 5.25036H7.43763V4.81283V4.3753H2.18765C0.981529 4.3753 0 5.35683 0 6.56295V21.0011V21.8761V23.1887C0 24.3948 0.981529 25.3764 2.18765 25.3764H10.9126C10.8349 26.124 10.5275 26.4737 9.87746 27.1265H8.74633V28.0015H9.0024H18.9902H19.2467V27.1265H18.1155C17.4655 26.4737 17.1581 26.1244 17.0804 25.3764H25.8135C27.0196 25.3764 28.0012 24.3948 28.0012 23.1887V21.8761V21.0011V6.56295C28.0012 5.35683 27.0196 4.3753 25.8135 4.3753ZM27.1257 23.1883C27.1257 23.9122 26.537 24.5009 25.8135 24.5009H17.059H10.934H2.18765C1.46375 24.5009 0.875061 23.9122 0.875061 23.1883V21.8757H27.1261L27.1257 23.1883ZM11.075 27.1261C11.4733 26.6478 11.7251 26.1566 11.7916 25.376H16.2018C16.2679 26.1566 16.5201 26.6478 16.9184 27.1261H11.075ZM14.4334 23.6259C13.5584 23.6259 14.4334 23.6259 13.5584 23.6259V22.7512H14.4334V23.6259ZM14.0006 11.3758C17.1371 11.3758 19.6885 8.82443 19.6885 5.68789C19.6885 5.39025 19.6652 5.09843 19.6209 4.81283C19.1985 2.09051 16.8391 0 14.0006 0C11.1617 0 8.80229 2.09051 8.3803 4.81283C8.336 5.09804 8.31308 5.39025 8.31308 5.68789C8.31308 8.82404 10.864 11.3758 14.0006 11.3758ZM9.20873 5.25036C9.22233 5.10232 9.24292 4.9566 9.26935 4.81283C9.39524 4.13011 9.6653 3.49752 10.0473 2.94808C10.9173 1.6965 12.3643 0.875449 14.0006 0.875449C15.1554 0.875449 16.2162 1.28461 17.0466 1.965L16.8461 2.09867L16.0398 2.63645L10.4599 3.10118L10.4389 3.10273L10.4436 3.13499L10.6834 4.81322L10.9962 7.00087H15.7507V7.87593H14.8756H12.688H11.8129H11.5312H11.3758V8.30763V8.75099H11.8133V9.09799V9.18852H11.9998H12.6888V8.98763V8.75099H14.0006H14.8756V9.10071V9.18891H15.7507V8.82249V8.75138H15.898H16.6254V8.30802V7.74032V7.00165V6.12659V4.814V3.2978L17.3761 2.79732L17.6819 2.59371C17.7779 2.70795 17.8688 2.82646 17.9539 2.94925C18.3359 3.49869 18.6059 4.13128 18.7322 4.814C18.7586 4.95777 18.7792 5.10348 18.7924 5.25153C18.8056 5.39569 18.8134 5.5414 18.8134 5.68906C18.8134 8.34261 16.6541 10.5019 14.0006 10.5019C11.347 10.5019 9.18814 8.34299 9.18814 5.68906C9.18775 5.54024 9.19552 5.39452 9.20873 5.25036ZM15.7507 6.12542H11.7546L11.5674 4.81283L11.4368 3.89775L15.7507 3.53832V4.81283V6.12542ZM17.938 17.9384C17.0629 17.9384 17.938 17.9384 17.0629 17.9384V17.0633H17.938V17.9384ZM17.938 14.4381C17.0629 14.4381 17.938 14.4381 17.0629 14.4381V13.563H17.938V14.4381ZM17.938 12.688C17.0629 12.688 17.938 12.688 17.0629 12.688V11.8129H17.938V12.688ZM17.938 16.1882C17.0629 16.1882 17.938 16.1882 17.0629 16.1882V15.3132H17.938V16.1882ZM17.0633 18.8134H17.9384V19.6885C17.0633 19.6885 17.9384 19.6885 17.0633 19.6885V18.8134ZM26.251 12.688H18.8134V11.8129H26.251V12.688ZM26.251 14.4381H18.8134V13.563H26.251V14.4381ZM21.4382 15.3132V16.1882H18.813V15.3132H21.4382ZM25.8135 15.3132V16.1882H22.3133V15.3132H25.8135ZM26.251 17.9384H18.8134V17.0633H26.251V17.9384ZM18.8134 18.8134H23.1887V19.6885H18.8134V18.8134ZM7.21925 11.401C6.48679 11.4772 5.7932 11.7418 5.19402 12.1832L4.84198 12.4428L5.11903 12.8185L5.36111 13.1469L5.71315 12.8873C6.16078 12.5574 6.67486 12.3507 7.21925 12.2788V15.2432V15.713L7.55692 16.0507L9.64743 18.1412C8.7405 18.8359 7.47027 19.0054 6.40675 18.5671L6.00225 18.4L5.84604 18.7788L5.66846 19.209L6.07297 19.3761C6.57578 19.5836 7.10851 19.6885 7.65639 19.6885C8.61966 19.6885 9.53163 19.3625 10.2691 18.7637L10.2858 18.7804L10.5951 18.4711L10.9045 18.1618L10.8877 18.1451C11.4861 17.4076 11.8125 16.4956 11.8125 15.5323C11.8125 15.1127 11.75 14.7023 11.6272 14.3064L11.6493 14.2971L11.4768 13.8949C11.4768 13.8941 11.476 13.8937 11.4756 13.8929L11.3043 13.4931L11.281 13.5032C10.622 12.3258 9.43488 11.5429 8.09392 11.4018V11.3766L7.65678 11.3762H7.65522H7.21886L7.21925 11.401ZM8.09392 14.8683V12.2796C9.08439 12.4125 9.96061 12.9903 10.4735 13.8486L8.09392 14.8683ZM10.9379 15.5319C10.9379 16.2613 10.7016 16.9537 10.2656 17.5226L8.42265 15.6796L10.8186 14.653C10.8978 14.9378 10.9379 15.232 10.9379 15.5319ZM3.28303 15.3132C3.28303 15.5545 3.47926 15.7507 3.72056 15.7507H3.94865H4.15809C4.882 15.7507 5.47068 16.3394 5.47068 17.0633C5.47068 17.4822 5.2729 17.8548 4.96671 18.0953C4.79846 18.2274 4.59718 18.3191 4.37725 18.3561V18.8134H3.50219V18.3759H2.40836V17.5008H3.50219H4.15848C4.26689 17.5008 4.36481 17.4596 4.44136 17.394C4.53539 17.3135 4.59601 17.1958 4.59601 17.0629C4.59601 16.822 4.39978 16.6254 4.15848 16.6254H4.10214H3.72095C2.99704 16.6254 2.40836 16.0367 2.40836 15.3128C2.40836 14.6639 2.88242 14.1249 3.50219 14.02V13.563H4.37725V13.7791V14.0006H5.47107V14.8756H4.37725H3.99955H3.72095C3.47926 14.8756 3.28303 15.0719 3.28303 15.3132ZM24.9384 6.56295H21.8757C21.1518 6.56295 20.5631 7.15164 20.5631 7.87554C20.5631 8.59945 21.1518 9.18814 21.8757 9.18814H24.9384C25.6624 9.18814 26.251 8.59945 26.251 7.87554C26.251 7.15164 25.6624 6.56295 24.9384 6.56295ZM24.9384 8.31307H21.8757C21.6344 8.31307 21.4382 8.11685 21.4382 7.87554C21.4382 7.63463 21.6344 7.43801 21.8757 7.43801H24.9384C25.1798 7.43801 25.376 7.63424 25.376 7.87554C25.376 8.11685 25.1798 8.31307 24.9384 8.31307ZM6.56295 7.43801H2.18765V6.56295H6.56295V7.43801ZM2.18765 10.0632H5.68751V10.9383H2.18765V10.0632ZM2.18765 8.31307H3.06271V9.18814C2.18765 9.18814 3.06271 9.18814 2.18765 9.18814V8.31307ZM5.68751 9.18814V8.31307H6.56257V9.18814C5.6875 9.18814 6.56295 9.18814 5.68751 9.18814ZM3.93777 9.18814V8.31307H4.81283V9.18814C3.93777 9.18814 4.81283 9.18814 3.93777 9.18814ZM13.563 12.688H14.4381V20.126H13.563V12.688Z" fill="#38CEC5"/>
</svg>
