<svg width="26" height="30" viewBox="0 0 26 30" fill="none" xmlns="http://www.w3.org/2000/svg">
<path d="M16.0741 23.6184H16.3486C16.436 23.6184 16.5198 23.5836 16.5816 23.5219C16.6434 23.4601 16.6781 23.3763 16.6781 23.2889C16.6781 23.2015 16.6434 23.1177 16.5816 23.0559C16.5198 22.9941 16.436 22.9594 16.3486 22.9594H5.48598V1.6591H18.4744V6.52179C18.4744 6.60918 18.5091 6.69298 18.5709 6.75477C18.6327 6.81656 18.7165 6.85128 18.8039 6.85128H23.4337V19.6854C23.4337 19.7728 23.4684 19.8566 23.5302 19.9184C23.592 19.9802 23.6758 20.0149 23.7632 20.0149C23.8506 20.0149 23.9344 19.9802 23.9962 19.9184C24.058 19.8566 24.0927 19.7728 24.0927 19.6854V6.52069C24.0927 6.51355 24.0894 6.50751 24.0889 6.50037C24.0871 6.47293 24.0819 6.44582 24.0735 6.41965C24.0696 6.40867 24.0674 6.39878 24.063 6.38835C24.0482 6.35337 24.0274 6.32123 24.0015 6.29335L19.04 1.10172C19.0082 1.06846 18.9698 1.04225 18.9272 1.02475C18.8846 1.00725 18.8389 0.998862 18.7929 1.00012C18.789 1.00012 18.7852 1.00012 18.7814 1.00012H5.15704C5.06965 1.00012 4.98584 1.03484 4.92405 1.09663C4.86226 1.15842 4.82755 1.24223 4.82755 1.32961V22.9605H1.32949C1.2421 22.9605 1.1583 22.9952 1.0965 23.057C1.03471 23.1188 1 23.2026 1 23.29C1 25.6019 2.64744 27.4827 4.67214 27.4827H16.3492C16.4366 27.4827 16.5204 27.448 16.5822 27.3862C16.644 27.3244 16.6787 27.2406 16.6787 27.1532C16.6787 27.0658 16.644 26.982 16.5822 26.9202C16.5204 26.8584 16.4366 26.8237 16.3492 26.8237H4.67269C3.10488 26.8237 1.81329 25.413 1.67161 23.6178H16.0741V23.6184ZM19.1334 2.16871L22.9922 6.19175H19.1334V2.16871Z" fill="#A76FD2" stroke="#A76FD2" stroke-width="0.2"/>
<path d="M22.4175 19.3514V9.74629C22.4175 9.65891 22.3828 9.5751 22.321 9.51331C22.2592 9.45152 22.1754 9.4168 22.088 9.4168H6.82886C6.74148 9.4168 6.65767 9.45152 6.59588 9.51331C6.53409 9.5751 6.49937 9.65891 6.49937 9.74629V19.3514C6.49937 19.4388 6.53409 19.5226 6.59588 19.5844C6.65767 19.6462 6.74148 19.6809 6.82886 19.6809H22.0885C22.1758 19.6808 22.2595 19.646 22.3212 19.5842C22.3828 19.5224 22.4175 19.4387 22.4175 19.3514ZM21.7585 11.3405H11.6476V10.0774H21.7596L21.7585 11.3405ZM9.49002 11.3405V10.0774H10.9886V11.3405H9.49002ZM10.9886 11.9994V19.023H9.49112V11.9989L10.9886 11.9994ZM7.1567 10.0774H8.83215V11.3405H7.1578L7.1567 10.0774ZM7.1567 11.9994H8.83215V19.023H7.1578L7.1567 11.9994ZM11.6465 19.023V11.9989H21.7596V19.0225L11.6465 19.023ZM18.2604 20.989C18.2604 20.9016 18.2257 20.8178 18.1639 20.756C18.1021 20.6942 18.0183 20.6595 17.931 20.6595H16.803C16.7156 20.6595 16.6318 20.6942 16.57 20.756C16.5082 20.8178 16.4735 20.9016 16.4735 20.989C16.4735 21.0764 16.5082 21.1602 16.57 21.2219C16.6318 21.2837 16.7156 21.3185 16.803 21.3185H17.9315C18.0188 21.3183 18.1025 21.2835 18.1641 21.2218C18.2258 21.16 18.2604 21.0763 18.2604 20.989ZM15.4845 20.989C15.4844 21.0473 15.5016 21.1044 15.534 21.153C15.5663 21.2016 15.6124 21.2395 15.6663 21.2619C15.7202 21.2842 15.7795 21.2901 15.8368 21.2788C15.894 21.2674 15.9466 21.2393 15.9879 21.198C16.0292 21.1568 16.0573 21.1042 16.0686 21.0469C16.08 20.9897 16.0741 20.9303 16.0517 20.8764C16.0293 20.8225 15.9915 20.7765 15.9429 20.7441C15.8943 20.7117 15.8372 20.6945 15.7788 20.6946C15.7008 20.6948 15.626 20.7258 15.5709 20.781C15.5157 20.8362 15.4847 20.9109 15.4845 20.989ZM6.58339 4.93962H10.1572C10.2446 4.93962 10.3284 4.9049 10.3902 4.84311C10.452 4.78132 10.4867 4.69751 10.4867 4.61013C10.4867 4.52274 10.452 4.43894 10.3902 4.37714C10.3284 4.31535 10.2446 4.28064 10.1572 4.28064H6.58339C6.49601 4.28064 6.4122 4.31535 6.35041 4.37714C6.28862 4.43894 6.25391 4.52274 6.25391 4.61013C6.25391 4.69751 6.28862 4.78132 6.35041 4.84311C6.4122 4.9049 6.49601 4.93962 6.58339 4.93962ZM6.58339 6.11808H11.3714C11.4588 6.11808 11.5426 6.08337 11.6044 6.02158C11.6662 5.95979 11.7009 5.87598 11.7009 5.7886C11.7009 5.70121 11.6662 5.6174 11.6044 5.55561C11.5426 5.49382 11.4588 5.45911 11.3714 5.45911H6.58339C6.49601 5.45911 6.4122 5.49382 6.35041 5.55561C6.28862 5.6174 6.25391 5.70121 6.25391 5.7886C6.25391 5.87598 6.28862 5.95979 6.35041 6.02158C6.4122 6.08337 6.49601 6.11808 6.58339 6.11808ZM12.6531 5.78914C12.6532 5.73077 12.636 5.67368 12.6036 5.62511C12.5713 5.57653 12.5252 5.53864 12.4713 5.51626C12.4174 5.49387 12.3581 5.48798 12.3008 5.49934C12.2436 5.5107 12.191 5.5388 12.1497 5.58008C12.1084 5.62135 12.0803 5.67395 12.069 5.7312C12.0576 5.78845 12.0635 5.84779 12.0859 5.9017C12.1083 5.95561 12.1461 6.00166 12.1947 6.03402C12.2433 6.06638 12.3004 6.0836 12.3588 6.08349C12.4368 6.08349 12.5117 6.05248 12.5669 5.99728C12.6221 5.94208 12.6531 5.86721 12.6531 5.78914ZM21.68 23.0351C22.0309 23.0488 22.3065 23.325 22.2939 23.6512C22.2906 23.7384 22.322 23.8232 22.3812 23.8872C22.4404 23.9513 22.5226 23.9892 22.6097 23.9928C22.653 23.9951 22.6963 23.9887 22.7371 23.9739C22.7779 23.9592 22.8153 23.9365 22.8471 23.907C22.879 23.8776 22.9046 23.8421 22.9225 23.8026C22.9403 23.7631 22.9501 23.7204 22.9512 23.677C22.9738 23.0993 22.5811 22.5996 22.0331 22.4365L22.0419 22.2031C22.0451 22.1161 22.0138 22.0313 21.9547 21.9673C21.8957 21.9033 21.8137 21.8653 21.7267 21.8616C21.6833 21.859 21.6398 21.8653 21.5989 21.8799C21.558 21.8946 21.5205 21.9173 21.4885 21.9468C21.4566 21.9762 21.4309 22.0119 21.4131 22.0515C21.3952 22.0911 21.3855 22.1339 21.3845 22.1773L21.3757 22.4102C20.8156 22.5288 20.3873 22.9966 20.3631 23.5754C20.3565 23.7419 20.3841 23.908 20.4443 24.0634C20.5044 24.2188 20.5959 24.3602 20.7129 24.4788C20.9491 24.7212 21.2698 24.863 21.608 24.8747C21.7774 24.8797 21.9382 24.9502 22.0567 25.0713C22.1112 25.1264 22.154 25.192 22.1823 25.2641C22.2106 25.3363 22.2239 25.4134 22.2214 25.4909C22.2083 25.8165 21.9178 26.0686 21.5625 26.057C21.2072 26.0455 20.9359 25.7665 20.9491 25.4403C20.9523 25.3532 20.9209 25.2683 20.8617 25.2043C20.8026 25.1403 20.7204 25.1023 20.6333 25.0988C20.5899 25.0962 20.5464 25.1024 20.5054 25.117C20.4645 25.1317 20.4269 25.1545 20.395 25.184C20.3631 25.2136 20.3375 25.2493 20.3197 25.289C20.302 25.3287 20.2925 25.3716 20.2917 25.4151C20.2687 25.9928 20.6613 26.492 21.2099 26.6551L21.2011 26.8676C21.198 26.9546 21.2295 27.0393 21.2886 27.1032C21.3478 27.1671 21.4299 27.205 21.5169 27.2086H21.5301C21.6152 27.2087 21.6971 27.1758 21.7585 27.1168C21.8199 27.0578 21.8561 26.9774 21.8595 26.8923L21.8678 26.6831C22.4279 26.5639 22.8562 26.0944 22.881 25.5156C22.887 25.3491 22.8589 25.1832 22.7984 25.028C22.7379 24.8728 22.6462 24.7317 22.529 24.6133C22.2928 24.3709 21.9721 24.2293 21.6338 24.2179C21.4643 24.2125 21.3034 24.1419 21.1846 24.0208C21.13 23.9658 21.0871 23.9003 21.0588 23.8281C21.0305 23.7559 21.0172 23.6787 21.0199 23.6013C21.0331 23.2751 21.3263 23.0208 21.68 23.0351Z" fill="#A76FD2" stroke="#A76FD2" stroke-width="0.2"/>
<path d="M25.4798 28.2329C25.461 28.1649 25.421 28.1048 25.3655 28.0613C25.3101 28.0178 25.2421 27.9933 25.1717 27.9912C24.8184 27.9803 24.4742 27.8769 24.1733 27.6914C24.9935 27.0237 25.5389 26.0773 25.7056 25.033C25.8723 23.9887 25.6486 22.9195 25.0771 22.0297C24.5055 21.1399 23.6263 20.4917 22.6073 20.2089C21.5882 19.9261 20.5007 20.0286 19.5524 20.4967C18.6041 20.9648 17.8614 21.7657 17.4661 22.7467C17.0709 23.7276 17.0507 24.8197 17.4095 25.8145C17.7683 26.8093 18.4809 27.6372 19.4113 28.14C20.3416 28.6428 21.4246 28.7853 22.4534 28.5404C22.7752 28.7577 23.1403 28.9026 23.5235 28.965C23.9067 29.0275 24.2989 29.0061 24.6731 28.9023L25.2771 28.7375C25.3611 28.7143 25.4325 28.6587 25.4757 28.583C25.5188 28.5072 25.5301 28.4174 25.5072 28.3333L25.4798 28.2329ZM23.4012 27.9292C23.5774 28.0914 23.774 28.2299 23.9861 28.341C23.5279 28.3511 23.0803 28.2029 22.7187 27.9215C22.6615 27.8781 22.5917 27.8546 22.5199 27.8545C22.4903 27.8544 22.4609 27.8585 22.4325 27.8666C21.559 28.1048 20.6277 28.0046 19.8248 27.586C19.0219 27.1674 18.4065 26.4614 18.1016 25.6088C17.7966 24.7563 17.8246 23.82 18.1799 22.9872C18.5351 22.1544 19.1916 21.4863 20.018 21.1164C20.8445 20.7465 21.78 20.702 22.6378 20.9919C23.4956 21.2818 24.2124 21.8847 24.6451 22.68C25.0777 23.4754 25.1943 24.4048 24.9716 25.2824C24.7488 26.16 24.2031 26.9213 23.4435 27.4141C23.4017 27.4416 23.3668 27.4782 23.3413 27.5213C23.3158 27.5643 23.3004 27.6126 23.2963 27.6624C23.2923 27.7123 23.2996 27.7624 23.3178 27.809C23.3359 27.8556 23.3645 27.8974 23.4012 27.9314V27.9292Z" fill="#A76FD2" stroke="#A76FD2" stroke-width="0.2"/>
</svg>
