<svg width="30" height="30" viewBox="0 0 30 30" fill="none" xmlns="http://www.w3.org/2000/svg">
<path d="M24.5 19.5C24.5 19.3674 24.4473 19.2402 24.3536 19.1464C24.2598 19.0527 24.1326 19 24 19H17.55L17.955 14.5H19.5C20.4283 14.5 21.3185 14.8687 21.9749 15.5251C22.6313 16.1815 23 17.0717 23 18H24C24 16.8065 23.5259 15.6619 22.682 14.818C21.8381 13.9741 20.6935 13.5 19.5 13.5H17.5C17.9719 13.1004 18.3507 12.6025 18.6098 12.041C18.8689 11.4796 19.0021 10.8683 19 10.25V7.75C19 7.34892 18.9428 6.9499 18.83 6.565L17.87 6.855C17.9572 7.14529 18.001 7.44689 18 7.75V10.25C18 11.112 17.6576 11.9386 17.0481 12.5481C16.4386 13.1576 15.612 13.5 14.75 13.5C13.888 13.5 13.0614 13.1576 12.4519 12.5481C11.8424 11.9386 11.5 11.112 11.5 10.25V8H10.5V10.25C10.4979 10.8683 10.6311 11.4796 10.8902 12.041C11.1493 12.6025 11.5281 13.1004 12 13.5H10.5C9.30653 13.5 8.16193 13.9741 7.31802 14.818C6.47411 15.6619 6 16.8065 6 18H7C7 17.0717 7.36875 16.1815 8.02513 15.5251C8.6815 14.8687 9.57174 14.5 10.5 14.5H12.045L12.45 19H6C5.86739 19 5.74021 19.0527 5.64645 19.1464C5.55268 19.2402 5.5 19.3674 5.5 19.5V29H0V30H30V29H24.5V19.5ZM13.05 14.5H16.95L16.545 19H13.455L13.05 14.5ZM6.5 29V20H23.5V29H6.5ZM11 7H15C16.0609 7 17.0783 6.57857 17.8284 5.82843C18.5786 5.07828 19 4.06087 19 3C19 2.86739 18.9473 2.74021 18.8536 2.64645C18.7598 2.55268 18.6326 2.5 18.5 2.5H14.5C13.4391 2.5 12.4217 2.92143 11.6716 3.67157C10.9214 4.42172 10.5 5.43913 10.5 6.5C10.5 6.63261 10.5527 6.75978 10.6464 6.85355C10.7402 6.94732 10.8674 7 11 7ZM14.5 3.5H17.96C17.8418 4.19938 17.4796 4.83425 16.9377 5.29192C16.3958 5.74959 15.7093 6.00046 15 6H11.54C11.6582 5.30062 12.0204 4.66575 12.5623 4.20808C13.1042 3.75041 13.7907 3.49954 14.5 3.5ZM1 5H2V7.5H1V5ZM3 2.5H4V7.5H3V2.5ZM5 1.5H6V7.5H5V1.5ZM7 3.5H8V7.5H7V3.5Z" fill="#FF0004"/>
<path d="M25.5 9C26.39 9 27.26 8.73608 28.0001 8.24162C28.7401 7.74715 29.3169 7.04434 29.6575 6.22208C29.9981 5.39981 30.0872 4.49501 29.9135 3.6221C29.7399 2.74918 29.3113 1.94736 28.682 1.31802C28.0526 0.688685 27.2508 0.260102 26.3779 0.0864683C25.505 -0.0871652 24.6002 0.00194976 23.7779 0.342544C22.9557 0.683138 22.2529 1.25991 21.7584 1.99994C21.2639 2.73996 21 3.60999 21 4.5C21 5.69348 21.4741 6.83807 22.318 7.68198C23.1619 8.5259 24.3065 9 25.5 9ZM22.04 5H25.21L26.785 7.755C26.3756 7.91579 25.9398 7.99887 25.5 8C24.6591 7.99902 23.8466 7.6953 23.2113 7.14441C22.5759 6.59353 22.1601 5.8323 22.04 5ZM29 4.5C28.999 5.03159 28.8769 5.55595 28.643 6.0333C28.409 6.51066 28.0695 6.92846 27.65 7.255L26.075 4.5L27.65 1.745C28.0695 2.07155 28.409 2.48935 28.643 2.9667C28.8769 3.44405 28.999 3.96842 29 4.5ZM25.5 1C25.9398 1.00113 26.3756 1.08422 26.785 1.245L25.21 4H22.04C22.1601 3.1677 22.5759 2.40648 23.2113 1.85559C23.8466 1.30471 24.6591 1.00099 25.5 1ZM13 23.25C13 23.7141 13.1844 24.1593 13.5126 24.4874C13.8408 24.8156 14.2859 25 14.75 25H15.25C15.4489 25 15.6397 25.079 15.7803 25.2197C15.921 25.3603 16 25.5511 16 25.75C16 25.9489 15.921 26.1397 15.7803 26.2803C15.6397 26.421 15.4489 26.5 15.25 26.5H13V27.5H15.25C15.7141 27.5 16.1592 27.3156 16.4874 26.9874C16.8156 26.6593 17 26.2141 17 25.75C17 25.2859 16.8156 24.8408 16.4874 24.5126C16.1592 24.1844 15.7141 24 15.25 24H14.75C14.5511 24 14.3603 23.921 14.2197 23.7803C14.079 23.6397 14 23.4489 14 23.25C14 23.0511 14.079 22.8603 14.2197 22.7197C14.3603 22.579 14.5511 22.5 14.75 22.5H17V21.5H14.75C14.2859 21.5 13.8408 21.6844 13.5126 22.0126C13.1844 22.3408 13 22.7859 13 23.25Z" fill="#FF0004"/>
</svg>
