<svg width="57" height="55" viewBox="0 0 57 55" fill="none" xmlns="http://www.w3.org/2000/svg">
<path d="M0.974854 0C0.716307 0 0.468349 0.102708 0.285528 0.285528C0.102708 0.468349 0 0.716307 0 0.974854V43.8684C0 44.127 0.102708 44.3749 0.285528 44.5578C0.468349 44.7406 0.716307 44.8433 0.974854 44.8433H9.26111V42.8936H1.94971V9.74854H48.7427V29.7057C48.7622 29.7993 48.809 29.8812 48.8207 29.9768C49.3608 29.5342 50.0295 29.3139 50.6924 29.2983V0.974854C50.6924 0.716307 50.5897 0.468349 50.4069 0.285528C50.2241 0.102708 49.9761 0 49.7175 0H0.974854ZM1.94971 1.94971H48.7427V7.79883H1.94971V1.94971ZM4.87427 3.89942C4.61572 3.89942 4.36776 4.00212 4.18494 4.18494C4.00212 4.36776 3.89942 4.61572 3.89942 4.87427C3.89942 5.13282 4.00212 5.38077 4.18494 5.56359C4.36776 5.74642 4.61572 5.84912 4.87427 5.84912C5.13282 5.84912 5.38077 5.74642 5.56359 5.56359C5.74642 5.38077 5.84912 5.13282 5.84912 4.87427C5.84912 4.61572 5.74642 4.36776 5.56359 4.18494C5.38077 4.00212 5.13282 3.89942 4.87427 3.89942ZM8.77368 3.89942C8.51514 3.89942 8.26718 4.00212 8.08436 4.18494C7.90154 4.36776 7.79883 4.61572 7.79883 4.87427C7.79883 5.13282 7.90154 5.38077 8.08436 5.56359C8.26718 5.74642 8.51514 5.84912 8.77368 5.84912C9.03223 5.84912 9.28019 5.74642 9.46301 5.56359C9.64583 5.38077 9.74854 5.13282 9.74854 4.87427C9.74854 4.61572 9.64583 4.36776 9.46301 4.18494C9.28019 4.00212 9.03223 3.89942 8.77368 3.89942ZM12.6731 3.89942C12.4146 3.89942 12.1666 4.00212 11.9838 4.18494C11.801 4.36776 11.6982 4.61572 11.6982 4.87427C11.6982 5.13282 11.801 5.38077 11.9838 5.56359C12.1666 5.74642 12.4146 5.84912 12.6731 5.84912C12.9316 5.84912 13.1796 5.74642 13.3624 5.56359C13.5452 5.38077 13.648 5.13282 13.648 4.87427C13.648 4.61572 13.5452 4.36776 13.3624 4.18494C13.1796 4.00212 12.9316 3.89942 12.6731 3.89942ZM30.2595 13.648C30.2289 13.6478 30.1983 13.6491 30.1678 13.6519C30.0096 13.6606 29.8559 13.7078 29.72 13.7893C29.5841 13.8708 29.4701 13.9843 29.3879 14.1198L19.6531 29.694C19.5852 29.8026 19.5394 29.9235 19.5183 30.0497C19.4971 30.176 19.5011 30.3052 19.5298 30.4299C19.5586 30.5547 19.6117 30.6725 19.686 30.7768C19.7604 30.881 19.8545 30.9695 19.9631 31.0374C20.0716 31.1052 20.1925 31.1511 20.3187 31.1722C20.445 31.1933 20.5742 31.1894 20.6989 31.1606C20.8237 31.1318 20.9415 31.0788 21.0458 31.0044C21.15 30.9301 21.2386 30.836 21.3064 30.7274L31.0393 15.1512C31.1327 15.0067 31.1862 14.8402 31.1944 14.6684C31.2025 14.4966 31.1651 14.3257 31.0859 14.1731C31.0067 14.0204 30.8886 13.8915 30.7434 13.7992C30.5983 13.707 30.4313 13.6548 30.2595 13.648ZM16.5413 15.5977C16.2884 15.6059 16.0486 15.7122 15.8726 15.894L10.0956 21.6749C10.0174 21.7419 9.95023 21.8209 9.89672 21.9089C9.8829 21.9298 9.86989 21.9513 9.85772 21.9732C9.85707 21.9739 9.85642 21.9745 9.85577 21.9752C9.85173 21.9842 9.84783 21.9933 9.84407 22.0025C9.83586 22.0178 9.82806 22.0334 9.82068 22.0492C9.81367 22.0666 9.80717 22.0842 9.80118 22.1019C9.79627 22.1167 9.79172 22.1317 9.78753 22.1467C9.78331 22.1609 9.77941 22.1752 9.77583 22.1896C9.77297 22.2026 9.77037 22.2156 9.76804 22.2286C9.76663 22.237 9.76532 22.2455 9.76414 22.254C9.73265 22.4265 9.74827 22.6042 9.80934 22.7686C9.87042 22.933 9.9747 23.0778 10.1112 23.1879L15.8726 28.9532C15.9625 29.0463 16.0701 29.1205 16.189 29.1716C16.3079 29.2227 16.4359 29.2496 16.5653 29.2507C16.6947 29.2519 16.8231 29.2272 16.9429 29.1782C17.0627 29.1292 17.1716 29.0568 17.2631 28.9652C17.3546 28.8737 17.427 28.7649 17.476 28.6451C17.525 28.5253 17.5497 28.3969 17.5486 28.2674C17.5475 28.138 17.5206 28.0101 17.4695 27.8911C17.4184 27.7722 17.3441 27.6646 17.251 27.5747L12.1018 22.4216L17.2491 17.2744C17.3911 17.1377 17.4883 16.9612 17.528 16.7681C17.5677 16.5751 17.5479 16.3745 17.4712 16.1929C17.3946 16.0113 17.2647 15.8572 17.0987 15.751C16.9326 15.6447 16.7383 15.5912 16.5413 15.5977ZM34.1199 15.5977C33.9254 15.5973 33.7352 15.6551 33.5738 15.7636C33.4124 15.8722 33.2872 16.0265 33.2142 16.2068C33.1413 16.3871 33.1239 16.5851 33.1644 16.7754C33.2049 16.9656 33.3013 17.1394 33.4414 17.2744L38.5906 22.4216L33.4433 27.5747C33.3466 27.6636 33.2688 27.7712 33.2147 27.891C33.1606 28.0107 33.1312 28.1402 33.1284 28.2716C33.1256 28.403 33.1493 28.5336 33.1983 28.6555C33.2472 28.7775 33.3203 28.8883 33.4132 28.9813C33.5061 29.0743 33.6168 29.1476 33.7387 29.1967C33.8606 29.2458 33.9911 29.2698 34.1225 29.2671C34.2539 29.2645 34.3834 29.2353 34.5032 29.1814C34.6231 29.1274 34.7308 29.0498 34.8198 28.9532L40.5929 23.1762C40.6982 23.0886 40.784 22.9799 40.8445 22.857C40.9049 22.7342 40.9389 22.5999 40.944 22.4631C40.9492 22.3262 40.9254 22.1898 40.8743 22.0627C40.8233 21.9357 40.746 21.8208 40.6475 21.7256L40.6436 21.7217L34.8198 15.894C34.729 15.8003 34.6202 15.7257 34.4999 15.6748C34.3797 15.6239 34.2505 15.5977 34.1199 15.5977ZM41.7393 29.2456C41.4808 29.2456 41.2328 29.3483 41.05 29.5311C40.8672 29.714 40.7645 29.9619 40.7645 30.2205V31.9655C40.1601 32.1526 39.5791 32.3885 39.0176 32.681L37.7892 31.4585C37.6065 31.2764 37.359 31.1741 37.101 31.1741C36.843 31.1741 36.5955 31.2764 36.4127 31.4585L33.4043 34.4611C33.3136 34.5516 33.2415 34.6592 33.1924 34.7777C33.1432 34.8961 33.1179 35.0231 33.1179 35.1513C33.1179 35.2795 33.1432 35.4065 33.1924 35.5249C33.2415 35.6433 33.3136 35.7509 33.4043 35.8415L34.6327 37.0698C34.3402 37.6333 34.0945 38.2143 33.9074 38.8187H32.1702C31.9116 38.8187 31.6637 38.9214 31.4809 39.1042C31.298 39.287 31.1953 39.535 31.1953 39.7935V44.0478C31.1953 44.3063 31.298 44.5543 31.4809 44.7371C31.6637 44.9199 31.9116 45.0226 32.1702 45.0226H33.9113C34.0984 45.6271 34.3363 46.212 34.6307 46.7735L33.4024 48.0018C33.2202 48.1845 33.1179 48.432 33.1179 48.6901C33.1179 48.9481 33.2202 49.1956 33.4024 49.3783L36.4127 52.3828C36.5956 52.5656 36.8435 52.6682 37.102 52.6682C37.3605 52.6682 37.6084 52.5656 37.7912 52.3828L39.0195 51.1564C39.581 51.4489 40.162 51.6887 40.7645 51.8778V53.617C40.7645 53.8755 40.8672 54.1235 41.05 54.3063C41.2328 54.4891 41.4808 54.5918 41.7393 54.5918H45.9975C46.2561 54.5918 46.504 54.4891 46.6868 54.3063C46.8697 54.1235 46.9724 53.8755 46.9724 53.617V51.8759C47.5768 51.6887 48.1578 51.4528 48.7193 51.1603L49.9476 52.3828C50.1303 52.565 50.3778 52.6672 50.6359 52.6672C50.8939 52.6672 51.1414 52.565 51.3241 52.3828L54.3325 49.3802C54.4233 49.2897 54.4953 49.1821 54.5445 49.0637C54.5936 48.9452 54.6189 48.8183 54.6189 48.6901C54.6189 48.5618 54.5936 48.4349 54.5445 48.3164C54.4953 48.198 54.4233 48.0904 54.3325 47.9999L53.1042 46.7715C53.3966 46.2081 53.6423 45.6271 53.8295 45.0226H55.5667C55.8252 45.0226 56.0732 44.9199 56.256 44.7371C56.4388 44.5543 56.5415 44.3063 56.5415 44.0478V39.7935C56.5415 39.535 56.4388 39.287 56.256 39.1042C56.0732 38.9214 55.8252 38.8187 55.5667 38.8187H53.8256C53.639 38.2146 53.3982 37.6286 53.1061 37.0678L54.3345 35.8395C54.5166 35.6568 54.6189 35.4093 54.6189 35.1513C54.6189 34.8933 54.5166 34.6458 54.3345 34.463L51.3241 31.4585C51.1413 31.2758 50.8934 31.1731 50.6349 31.1731C50.3764 31.1731 50.1285 31.2758 49.9457 31.4585L48.7173 32.6849C48.1586 32.3924 47.5746 32.151 46.9724 31.9635V30.2205C46.9724 29.9619 46.8697 29.714 46.6868 29.5311C46.504 29.3483 46.2561 29.2456 45.9975 29.2456H41.7393ZM42.7142 31.1953H45.0226V32.5972C45.0223 32.818 45.097 33.0324 45.2344 33.2052C45.3719 33.3781 45.5639 33.4992 45.7791 33.5486C46.7228 33.7631 47.6197 34.1355 48.4385 34.6483C48.6255 34.7654 48.8466 34.8157 49.0658 34.7909C49.285 34.7661 49.4894 34.6677 49.6454 34.5118L50.6359 33.5252L52.2658 35.1513L51.2793 36.1378C51.1243 36.2936 51.0264 36.4972 51.0016 36.7156C50.9769 36.9339 51.0266 37.1543 51.1428 37.3408C51.6536 38.1616 52.0221 39.0643 52.2346 40.008C52.2833 40.2239 52.4041 40.4169 52.577 40.5551C52.7499 40.6933 52.9647 40.7685 53.1861 40.7684H54.5918V43.0729H53.19C52.9692 43.0726 52.7548 43.1473 52.5819 43.2847C52.4091 43.4222 52.288 43.6142 52.2385 43.8294C52.0241 44.7731 51.6536 45.6739 51.1389 46.4927C51.0217 46.6797 50.9714 46.9008 50.9962 47.12C51.021 47.3392 51.1194 47.5436 51.2754 47.6996L52.2658 48.6901L50.6359 50.3161L49.6493 49.3335C49.4935 49.1784 49.2899 49.0806 49.0716 49.0558C48.8532 49.0311 48.6329 49.0808 48.4463 49.197C47.6255 49.7078 46.7228 50.0763 45.7791 50.2888C45.5646 50.3381 45.373 50.4586 45.2357 50.6307C45.0983 50.8027 45.0232 51.0162 45.0226 51.2364V52.6421H42.7142V51.2403C42.7136 51.0201 42.6385 50.8066 42.5012 50.6346C42.3638 50.4625 42.1723 50.342 41.9577 50.2927C41.0155 50.0779 40.1164 49.7055 39.2983 49.1911C39.1114 49.074 38.8902 49.0237 38.671 49.0485C38.4518 49.0732 38.2475 49.1717 38.0914 49.3276L37.101 50.3161L35.471 48.6901L36.4576 47.7035C36.614 47.5473 36.7127 47.3426 36.7375 47.123C36.7623 46.9033 36.7117 46.6818 36.5941 46.4947C36.083 45.6753 35.7139 44.7755 35.5022 43.8333C35.4535 43.6174 35.3328 43.4245 35.1599 43.2863C34.9869 43.1481 34.7721 43.0728 34.5508 43.0729H33.145V40.7684H34.5469C34.768 40.7686 34.9826 40.6936 35.1555 40.5558C35.3283 40.418 35.4492 40.2255 35.4983 40.01C35.7128 39.0682 36.0852 38.1675 36.598 37.3486C36.7151 37.1617 36.7654 36.9405 36.7406 36.7213C36.7158 36.5021 36.6174 36.2978 36.4615 36.1417L35.471 35.1513L37.101 33.5252L38.0875 34.5079C38.2433 34.6629 38.4469 34.7607 38.6653 34.7855C38.8836 34.8103 39.104 34.7605 39.2905 34.6444C40.1113 34.1335 41.0141 33.7611 41.9577 33.5486C42.1716 33.4995 42.3627 33.3795 42.5 33.2083C42.6373 33.037 42.7128 32.8245 42.7142 32.605V31.1953ZM18.7659 34.5683C18.5074 34.5683 18.2594 34.671 18.0766 34.8538C17.8938 35.0367 17.7911 35.2846 17.7911 35.5432V36.5414C17.5103 36.6389 17.2354 36.7481 16.9683 36.8768L16.2645 36.1749C16.0816 35.9921 15.8337 35.8895 15.5752 35.8895C15.3167 35.8895 15.0688 35.9921 14.886 36.1749L12.8193 38.2435C12.6366 38.4263 12.5339 38.6742 12.5339 38.9327C12.5339 39.1912 12.6366 39.4391 12.8193 39.622L13.5212 40.3278C13.3914 40.5944 13.2775 40.8685 13.18 41.1486H12.1857C11.9271 41.1486 11.6792 41.2513 11.4963 41.4341C11.3135 41.6169 11.2108 41.8649 11.2108 42.1234V45.048C11.2108 45.3065 11.3135 45.5545 11.4963 45.7373C11.6792 45.9201 11.9271 46.0229 12.1857 46.0229H13.1839C13.2814 46.3056 13.3886 46.5785 13.5193 46.8456L12.8174 47.5514C12.6346 47.7342 12.532 47.9821 12.532 48.2406C12.532 48.4991 12.6346 48.7471 12.8174 48.9299L14.8841 50.9966C14.9746 51.0873 15.0822 51.1594 15.2006 51.2085C15.3191 51.2577 15.446 51.283 15.5743 51.283C15.7025 51.283 15.8295 51.2577 15.9479 51.2085C16.0663 51.1594 16.1739 51.0873 16.2645 50.9966L16.9683 50.2927C17.2374 50.4233 17.5103 50.5345 17.7911 50.632V51.6283C17.7911 51.8868 17.8938 52.1348 18.0766 52.3176C18.2594 52.5004 18.5074 52.6031 18.7659 52.6031H21.6905C21.949 52.6031 22.197 52.5004 22.3798 52.3176C22.5626 52.1348 22.6654 51.8868 22.6654 51.6283V50.632C22.9459 50.5348 23.2206 50.4216 23.4881 50.2927L24.192 50.9966C24.3748 51.1793 24.6227 51.282 24.8812 51.282C25.1397 51.282 25.3876 51.1793 25.5704 50.9966L27.6371 48.9299C27.7285 48.8392 27.801 48.7314 27.8505 48.6126C27.9 48.4938 27.9255 48.3664 27.9255 48.2377C27.9255 48.109 27.9 47.9816 27.8505 47.8628C27.801 47.744 27.7285 47.6362 27.6371 47.5456L26.9372 46.8456C27.0678 46.5785 27.1789 46.3056 27.2764 46.0229H28.2708C28.5293 46.0229 28.7773 45.9201 28.9601 45.7373C29.1429 45.5545 29.2456 45.3065 29.2456 45.048V42.1234C29.2456 41.8649 29.1429 41.6169 28.9601 41.4341C28.7773 41.2513 28.5293 41.1486 28.2708 41.1486H27.2725C27.1757 40.8685 27.0624 40.5944 26.9333 40.3278L27.6391 39.622C27.8218 39.4391 27.9245 39.1912 27.9245 38.9327C27.9245 38.6742 27.8218 38.4263 27.6391 38.2435L25.5724 36.1768C25.4818 36.086 25.3742 36.014 25.2558 35.9649C25.1374 35.9157 25.0104 35.8904 24.8822 35.8904C24.7539 35.8904 24.627 35.9157 24.5085 35.9649C24.3901 36.014 24.2825 36.086 24.192 36.1768L23.4881 36.8807C23.221 36.7499 22.9463 36.6353 22.6654 36.5375V35.5432C22.6654 35.2846 22.5626 35.0367 22.3798 34.8538C22.197 34.671 21.949 34.5683 21.6905 34.5683H18.7659ZM19.7408 36.518H20.7156V37.177C20.7159 37.3978 20.791 37.6119 20.9288 37.7844C21.0666 37.9569 21.2588 38.0775 21.4741 38.1265C22.0882 38.2669 22.6771 38.5106 23.2093 38.846C23.3964 38.9636 23.618 39.0142 23.8376 38.9894C24.0573 38.9646 24.262 38.8659 24.4181 38.7095L24.8822 38.2435L25.5704 38.9337L25.1064 39.3938C24.95 39.55 24.8513 39.7547 24.8265 39.9744C24.8017 40.194 24.8522 40.4155 24.9699 40.6027C25.3014 41.1369 25.547 41.7218 25.6854 42.3379C25.734 42.5532 25.8542 42.7456 26.0263 42.8838C26.1984 43.0219 26.4123 43.0975 26.633 43.0983H27.2959V44.0731H26.6369C26.4155 44.073 26.2007 44.1483 26.0278 44.2865C25.8549 44.4247 25.7341 44.6176 25.6854 44.8335C25.546 45.4468 25.3041 46.0321 24.9699 46.5649C24.8522 46.752 24.8017 46.9735 24.8265 47.1932C24.8513 47.4128 24.95 47.6175 25.1064 47.7737L25.5704 48.2416L24.8822 48.924L24.4201 48.4639C24.264 48.3079 24.0597 48.2095 23.8405 48.1847C23.6213 48.1599 23.4001 48.2102 23.2132 48.3274C22.6789 48.6605 22.0923 48.9011 21.478 49.0391C21.2614 49.0874 21.0677 49.2083 20.9291 49.3817C20.7905 49.555 20.7152 49.7705 20.7156 49.9925V50.6554H19.7408V49.9964C19.7414 49.7749 19.6667 49.5599 19.5288 49.3866C19.391 49.2133 19.1983 49.0921 18.9824 49.0429C18.3679 48.9034 17.7813 48.6616 17.2471 48.3274C17.0604 48.2093 16.8391 48.158 16.6195 48.1821C16.3999 48.2062 16.1949 48.3042 16.0383 48.46L15.5743 48.926L14.886 48.2358L15.35 47.7717C15.5051 47.616 15.6029 47.4124 15.6277 47.194C15.6524 46.9756 15.6027 46.7553 15.4865 46.5688C15.1522 46.0347 14.9103 45.448 14.771 44.8335C14.7228 44.6179 14.6028 44.425 14.4307 44.2865C14.2585 44.148 14.0444 44.0721 13.8234 44.0712H13.1605V43.0963H13.8195C14.0409 43.0965 14.2557 43.0212 14.4286 42.883C14.6015 42.7448 14.7223 42.5519 14.771 42.336C14.9114 41.7237 15.1531 41.1349 15.4865 40.6007C15.6037 40.4138 15.654 40.1926 15.6292 39.9734C15.6044 39.7542 15.506 39.5499 15.35 39.3938L14.886 38.9298L15.5743 38.2396L16.0363 38.7017C16.1924 38.8577 16.3967 38.9561 16.6159 38.9809C16.8351 39.0056 17.0563 38.9553 17.2432 38.8382C17.7774 38.5048 18.3643 38.265 18.9785 38.1265C19.1944 38.0783 19.3876 37.958 19.5261 37.7854C19.6646 37.6129 19.7404 37.3983 19.7408 37.177V36.518ZM43.8684 37.0483C42.5779 37.0535 41.3417 37.5681 40.4288 38.4803C39.516 39.3924 39.0003 40.6282 38.9942 41.9187C38.9993 43.2099 39.5145 44.4467 40.4275 45.3597C41.3405 46.2727 42.5773 46.7879 43.8684 46.793C45.1596 46.7879 46.3964 46.2727 47.3094 45.3597C48.2224 44.4467 48.7376 43.2099 48.7427 41.9187C48.7365 40.6282 48.2209 39.3924 47.308 38.4803C46.3951 37.5681 45.1589 37.0535 43.8684 37.0483ZM43.8684 38.9981C45.4789 38.9981 46.793 40.3083 46.793 41.9187C46.793 43.5292 45.4789 44.8433 43.8684 44.8433C42.258 44.8433 40.9439 43.5292 40.9439 41.9187C40.9439 40.3083 42.258 38.9981 43.8684 38.9981ZM20.2282 40.3765C18.4676 40.3765 17.019 41.8251 17.019 43.5857C17.019 45.3483 18.4676 46.793 20.2282 46.793C21.9888 46.793 23.4374 45.3463 23.4374 43.5857C23.4374 41.8251 21.9888 40.3765 20.2282 40.3765ZM20.2282 42.3262C20.562 42.3262 20.8821 42.4588 21.1181 42.6948C21.3542 42.9308 21.4868 43.251 21.4868 43.5847C21.4868 43.9185 21.3542 44.2386 21.1181 44.4747C20.8821 44.7107 20.562 44.8433 20.2282 44.8433C19.8944 44.8433 19.5743 44.7107 19.3383 44.4747C19.1023 44.2386 18.9697 43.9185 18.9697 43.5847C18.9697 43.251 19.1023 42.9308 19.3383 42.6948C19.5743 42.4588 19.8944 42.3262 20.2282 42.3262Z" fill="#303030"/>
</svg>
