<svg width="27" height="27" viewBox="0 0 27 27" fill="none" xmlns="http://www.w3.org/2000/svg">
<path d="M11.7678 16.9965L12.2532 17.1978L12.5535 18.4499H14.4461L14.7464 17.1978L15.2318 16.9965L16.3334 17.6716L17.6714 16.3335L16.9964 15.232L17.1976 14.7465L18.4498 14.4462V12.5536L17.1976 12.2534L16.9964 11.7679L17.6715 10.6663L16.3334 9.32831L15.2319 10.0033L14.7464 9.80209L14.4461 8.54993H12.5535L12.2532 9.80209L11.7678 10.0033L10.6662 9.32825L9.32819 10.6663L10.0032 11.7679L9.80197 12.2534L8.5498 12.5536V14.4462L9.80197 14.7465L10.0032 15.2319L9.32813 16.3335L10.6662 17.6715L11.7678 16.9965ZM10.4579 13.9782L9.4498 13.7365V13.2633L10.4579 13.0216L11.0102 11.6887L10.4663 10.801L10.8009 10.4663L11.6886 11.0103L13.0215 10.458L13.2632 9.44993H13.7364L13.9781 10.458L15.311 11.0103L16.1987 10.4664L16.5334 10.801L15.9894 11.6887L16.5418 13.0216L17.5498 13.2633V13.7365L16.5418 13.9782L15.9894 15.3111L16.5333 16.1988L16.1987 16.5335L15.311 15.9895L13.9781 16.5419L13.7364 17.5499H13.2632L13.0215 16.5419L11.6886 15.9895L10.8009 16.5335L10.4662 16.1988L11.0102 15.3111L10.4579 13.9782Z" fill="#FFB545"/>
<path d="M13.5 15.3C13.856 15.3 14.204 15.1944 14.5 14.9966C14.796 14.7989 15.0267 14.5177 15.163 14.1888C15.2992 13.8599 15.3349 13.498 15.2654 13.1488C15.196 12.7997 15.0245 12.4789 14.7728 12.2272C14.5211 11.9755 14.2003 11.804 13.8512 11.7346C13.502 11.6651 13.1401 11.7008 12.8112 11.837C12.4823 11.9733 12.2011 12.204 12.0034 12.5C11.8056 12.796 11.7 13.144 11.7 13.5C11.7005 13.9772 11.8904 14.4347 12.2278 14.7722C12.5653 15.1096 13.0228 15.2995 13.5 15.3ZM13.5 12.6C13.678 12.6 13.852 12.6528 14 12.7517C14.148 12.8506 14.2634 12.9911 14.3315 13.1556C14.3996 13.32 14.4174 13.501 14.3827 13.6756C14.348 13.8502 14.2623 14.0105 14.1364 14.1364C14.0105 14.2623 13.8502 14.348 13.6756 14.3827C13.501 14.4174 13.32 14.3996 13.1556 14.3315C12.9911 14.2634 12.8506 14.148 12.7517 14C12.6528 13.852 12.6 13.678 12.6 13.5C12.6003 13.2614 12.6952 13.0326 12.8639 12.8639C13.0326 12.6952 13.2614 12.6003 13.5 12.6ZM24.3 18.6389L20.7 16.5817L17.1 18.6389V23.85H24.3V18.6389ZM21.6 21.15H19.8V20.25H21.6V21.15ZM19.8 22.05H21.6V22.95H19.8V22.05ZM23.4 22.95H22.5V19.35H18.9V22.95H18V19.1611L20.7 17.6183L23.4 19.1611V22.95ZM6.3 12.6H7.65V11.7H6.3C5.23198 11.7 4.18795 11.3833 3.29992 10.7899C2.4119 10.1966 1.71977 9.35321 1.31105 8.36649C0.90234 7.37977 0.795402 6.29401 1.00376 5.24651C1.21212 4.19902 1.72642 3.23683 2.48163 2.48163C3.23683 1.72642 4.19902 1.21212 5.24651 1.00376C6.29401 0.795402 7.37977 0.90234 8.36649 1.31105C9.35321 1.71977 10.1966 2.4119 10.7899 3.29992C11.3833 4.18795 11.7 5.23198 11.7 6.3V7.65H12.6V6.3C12.6 5.05398 12.2305 3.83594 11.5383 2.79991C10.846 1.76388 9.86208 0.956394 8.71091 0.479562C7.55973 0.00272968 6.29301 -0.122031 5.07093 0.121056C3.84885 0.364142 2.7263 0.964159 1.84523 1.84523C0.964159 2.7263 0.364142 3.84885 0.121056 5.07093C-0.122031 6.29301 0.00272968 7.55973 0.479562 8.71091C0.956394 9.86208 1.76388 10.846 2.79991 11.5383C3.83594 12.2305 5.05398 12.6 6.3 12.6ZM15.3 6.3C15.3 5.23198 15.6167 4.18795 16.2101 3.29992C16.8034 2.4119 17.6468 1.71977 18.6335 1.31105C19.6202 0.90234 20.706 0.795402 21.7535 1.00376C22.801 1.21212 23.7632 1.72642 24.5184 2.48163C25.2736 3.23683 25.7879 4.19902 25.9962 5.24651C26.2046 6.29401 26.0977 7.37977 25.6889 8.36649C25.2802 9.35321 24.5881 10.1966 23.7001 10.7899C22.8121 11.3833 21.768 11.7 20.7 11.7H19.35V12.6H20.7C21.946 12.6 23.1641 12.2305 24.2001 11.5383C25.2361 10.846 26.0436 9.86208 26.5204 8.71091C26.9973 7.55973 27.122 6.29301 26.8789 5.07093C26.6359 3.84885 26.0358 2.7263 25.1548 1.84523C24.2737 0.964159 23.1511 0.364142 21.9291 0.121056C20.707 -0.122031 19.4403 0.00272968 18.2891 0.479562C17.1379 0.956394 16.154 1.76388 15.4617 2.79991C14.7695 3.83594 14.4 5.05398 14.4 6.3V7.65H15.3V6.3ZM11.7 20.7C11.7 21.768 11.3833 22.8121 10.7899 23.7001C10.1966 24.5881 9.35321 25.2802 8.36649 25.6889C7.37977 26.0977 6.29401 26.2046 5.24651 25.9962C4.19902 25.7879 3.23683 25.2736 2.48163 24.5184C1.72642 23.7632 1.21212 22.801 1.00376 21.7535C0.795402 20.706 0.90234 19.6202 1.31105 18.6335C1.71977 17.6468 2.4119 16.8034 3.29992 16.2101C4.18795 15.6167 5.23198 15.3 6.3 15.3H7.65V14.4H6.3C5.05398 14.4 3.83594 14.7695 2.79991 15.4617C1.76388 16.154 0.956394 17.1379 0.479562 18.2891C0.00272968 19.4403 -0.122031 20.707 0.121056 21.9291C0.364142 23.1511 0.964159 24.2737 1.84523 25.1548C2.7263 26.0358 3.84885 26.6359 5.07093 26.8789C6.29301 27.122 7.55973 26.9973 8.71091 26.5204C9.86208 26.0436 10.846 25.2361 11.5383 24.2001C12.2305 23.1641 12.6 21.946 12.6 20.7V19.35H11.7V20.7Z" fill="#FFB545"/>
<path d="M20.7002 14.4H19.3502V15.3H20.7002C21.7682 15.3 22.8122 15.6167 23.7003 16.2101C24.5883 16.8034 25.2804 17.6468 25.6891 18.6335C26.0979 19.6202 26.2048 20.706 25.9964 21.7535C25.7881 22.801 25.2738 23.7632 24.5186 24.5184C23.7634 25.2736 22.8012 25.7879 21.7537 25.9962C20.7062 26.2046 19.6204 26.0977 18.6337 25.6889C17.647 25.2802 16.8036 24.5881 16.2103 23.7001C15.6169 22.812 15.3002 21.768 15.3002 20.7V19.35H14.4002V20.7C14.4002 21.946 14.7697 23.1641 15.4619 24.2001C16.1542 25.2361 17.1381 26.0436 18.2893 26.5204C19.4405 26.9973 20.7072 27.122 21.9293 26.8789C23.1513 26.6359 24.2739 26.0358 25.155 25.1548C26.036 24.2737 26.6361 23.1511 26.8791 21.9291C27.1222 20.707 26.9975 19.4403 26.5206 18.2891C26.0438 17.1379 25.2363 16.154 24.2003 15.4617C23.1643 14.7695 21.9462 14.4 20.7002 14.4ZM3.1502 21.6V23.4C3.1506 23.7579 3.29297 24.101 3.54605 24.3541C3.79914 24.6072 4.14228 24.7496 4.50019 24.75H8.10019C8.45811 24.7496 8.80125 24.6072 9.05434 24.3541C9.30742 24.101 9.44978 23.7579 9.45019 23.4V21.6C9.44969 21.3905 9.40067 21.184 9.30698 20.9966C9.21328 20.8092 9.07746 20.6461 8.91016 20.52L7.72968 19.6346L8.00785 18.8001C8.06905 18.6166 8.10023 18.4244 8.10019 18.2309V18C8.10019 17.5226 7.91055 17.0648 7.57299 16.7272C7.23542 16.3896 6.77758 16.2 6.30019 16.2C5.8228 16.2 5.36497 16.3896 5.0274 16.7272C4.68984 17.0648 4.50019 17.5226 4.50019 18V18.2309C4.50016 18.4244 4.53134 18.6166 4.59254 18.8002L4.87071 19.6346L3.69023 20.52C3.52292 20.6461 3.38709 20.8092 3.2934 20.9966C3.1997 21.184 3.15069 21.3905 3.1502 21.6ZM4.05019 21.6C4.05036 21.5302 4.0667 21.4613 4.09793 21.3989C4.12916 21.3364 4.17444 21.282 4.23021 21.24L5.92968 19.9654L5.44639 18.5156C5.41577 18.4238 5.40017 18.3277 5.40019 18.2309V18C5.40019 17.7613 5.49502 17.5324 5.6638 17.3636C5.83258 17.1948 6.0615 17.1 6.30019 17.1C6.53889 17.1 6.76781 17.1948 6.93659 17.3636C7.10537 17.5324 7.20019 17.7613 7.20019 18V18.2309C7.20022 18.3277 7.18462 18.4238 7.154 18.5155L6.67071 19.9654L8.37018 21.24C8.42595 21.282 8.47122 21.3364 8.50246 21.3989C8.53369 21.4613 8.55003 21.5302 8.55019 21.6V23.4C8.55006 23.5193 8.5026 23.6337 8.41824 23.718C8.33388 23.8024 8.2195 23.8499 8.10019 23.85H4.50019C4.38089 23.8499 4.26651 23.8024 4.18215 23.718C4.09779 23.6337 4.05033 23.5193 4.05019 23.4V21.6ZM24.3002 8.1V4.5C24.2998 4.14208 24.1574 3.79894 23.9043 3.54586C23.6512 3.29277 23.3081 3.15041 22.9502 3.15H18.4502C18.0923 3.15041 17.7491 3.29277 17.496 3.54586C17.243 3.79894 17.1006 4.14208 17.1002 4.5V8.1C17.1006 8.45791 17.243 8.80105 17.496 9.05414C17.7491 9.30723 18.0923 9.44959 18.4502 9.45H22.9502C23.3081 9.44959 23.6512 9.30723 23.9043 9.05414C24.1574 8.80105 24.2998 8.45791 24.3002 8.1ZM19.8002 4.05H20.7002V5.85H19.8002V4.05ZM18.0002 8.1V4.5C18.0003 4.38069 18.0478 4.26631 18.1321 4.18195C18.2165 4.09759 18.3309 4.05014 18.4502 4.05H18.9002V6.75H21.6002V4.05H22.9502C23.0695 4.05014 23.1839 4.09759 23.2682 4.18195C23.3526 4.26631 23.4001 4.38069 23.4002 4.5V8.1C23.4001 8.2193 23.3526 8.33368 23.2682 8.41805C23.1839 8.50241 23.0695 8.54986 22.9502 8.55H18.4502C18.3309 8.54986 18.2165 8.50241 18.1321 8.41805C18.0478 8.33368 18.0003 8.2193 18.0002 8.1ZM4.50019 2.25V4.17567L3.1502 4.62568V8.1H2.7002V9H9.90019V8.1H9.45019V3.42565L8.55019 3.72564V2.25H7.65019V4.02564L6.75019 4.32563V3.42565L5.40019 3.87566V2.25H4.50019ZM8.55019 4.67435V8.1H6.75019V5.27437L8.55019 4.67435ZM5.85019 8.1H4.05019V5.27432L5.85019 4.67435V8.1Z" fill="#FFB545"/>
</svg>
